<svg
   id="Layer_1"
   x="0px"
   y="0px"
   width="670.11292"
   height="581.92731"
   viewBox="0 0 670.1129 581.92728"
   enable-background="new 0 0 841.89 595.28"
   xml:space="preserve"
   sodipodi:docname="logo.svg"
   inkscape:version="0.92.1 r15371"><metadata
     id="metadata3691"><rdf:RDF><cc:Work
         rdf:about=""><dc:format>image/svg+xml</dc:format><dc:type
           rdf:resource="http://purl.org/dc/dcmitype/StillImage" /><dc:title></dc:title></cc:Work></rdf:RDF></metadata><defs
     id="defs3689" /><sodipodi:namedview
     pagecolor="#ffffff"
     bordercolor="#5a7fd5"
     borderopacity="1"
     objecttolerance="10"
     gridtolerance="10"
     guidetolerance="10"
     inkscape:pageopacity="0"
     inkscape:pageshadow="2"
     inkscape:window-width="1920"
     inkscape:window-height="1017"
     id="namedview3687"
     showgrid="false"
     inkscape:zoom="1"
     inkscape:cx="302.48653"
     inkscape:cy="359.24243"
     inkscape:window-x="-8"
     inkscape:window-y="-8"
     inkscape:window-maximized="1"
     inkscape:current-layer="Layer_1"
     fit-margin-top="0"
     fit-margin-left="0"
     fit-margin-right="0"
     fit-margin-bottom="0" /><g
     id="g3684"
     transform="matrix(1.8224882,0,0,1.8224882,-450.11224,-221.78998)"><path
       d="m 319.334,417.5 c 0,0 -37.241,-49.957 -24,-130 11,-66.5 55,-92.5 91.667,-92.5 28.008,0 55.524,18.602 73,50.333 23.778,43.177 27.276,110.265 -13.167,173.667 30.5,-13.5 58,-44 64.5,-69 8,29 17.5,48 22,56 0,0 22.334,41.5 81.334,27 -6.833,-5.667 -20.334,-17.332 -20.667,-71.333 0,0 8.667,-70.001 -45,-100.333 26,-21 23,-41 24,-59.667 1,-18.667 4.333,-42.333 33.333,-63.333 -21.333,-5.333 -51.667,-2.667 -72,19.333 -20.333,22 -24.333,47.667 -24.333,47.667 0,0 -32.333,-83 -127.667,-83.635 -54.696,-0.364 -94.749,35.473 -115.667,75.635 0,0 -69,137.333 51.332,220 1.669,2.333 1.335,0.166 1.335,0.166 z"
       id="path3680"
       inkscape:connector-curvature="0"
       style="fill:#5a7fd5" /><path
       d="m 330.834,441 c 0,0 47.5,-88.5 33.5,-207 69.5,64.5 80,136 65.5,202 -18.5,-0.5 -69.5,0 -99,5 z"
       id="path3682"
       inkscape:connector-curvature="0"
       style="fill:#5a7fd5" /></g></svg>