<svg version="1.1" id="Layer_1" xmlns="http://www.w3.org/2000/svg" xmlns:xlink="http://www.w3.org/1999/xlink" x="0px" y="0px"
	 width="198.425px" height="255.118px" viewBox="0 0 198.425 255.118" enable-background="new 0 0 198.425 255.118"
	 xml:space="preserve">
<g>
	<path fill-rule="evenodd" clip-rule="evenodd" fill="#81B851" d="M22.319,136.321L89.052,23.436
		c0.59-0.995,1.115-1.933,1.874-2.828c3.668-4.312,10.016-5.488,15.056-2.509c3.104,1.835,3.758,3.591,5.383,6.473l23.692,41.913
		c13.068,28.386-88.8,28.942-108.672,72.655c-5.345,11.754,6.619,14.264,9.11,14.379c75.336,3.379,97.729-90.205,117.85-54.936
		l21.518,37.303c0.762,1.32,1.789,2.785,2.415,4.109c0.723,1.533,1.128,3.246,1.128,5.053c0,6.125-4.647,11.164-10.605,11.785
		c-1.218,0.127-2.556,0.064-3.781,0.064H33.36c-0.724,0-1.208-0.014-1.926-0.143c-8.792-1.521-13.25-8.758-10.702-17.023
		C21.168,138.331,21.591,137.558,22.319,136.321z"/>
	<path fill="none" stroke="#81B851" stroke-width="0.2858" stroke-miterlimit="22.9256" d="M22.319,136.321L89.052,23.436
		c0.59-0.995,1.115-1.933,1.874-2.828c3.668-4.312,10.016-5.488,15.056-2.509c3.104,1.835,3.758,3.591,5.383,6.473l23.692,41.913
		c13.068,28.386-88.8,28.942-108.672,72.655c-5.345,11.754,6.619,14.264,9.11,14.379c75.336,3.379,97.729-90.205,117.85-54.936
		l21.518,37.303c0.762,1.32,1.789,2.785,2.415,4.109c0.723,1.533,1.128,3.246,1.128,5.053c0,6.125-4.647,11.164-10.605,11.785
		c-1.218,0.127-2.556,0.064-3.781,0.064H33.36c-0.724,0-1.208-0.014-1.926-0.143c-8.792-1.521-13.25-8.758-10.702-17.023
		C21.168,138.331,21.591,137.558,22.319,136.321z"/>
	<path fill-rule="evenodd" clip-rule="evenodd" fill="#538447" d="M134.475,94.552c-47.36,35.835-76.395,43.931-83.055,37.271
		c-4.479-4.484-3.543-13.053,8.424-21.569v-0.123c-14.874,7.17-27.658,16.248-33.459,29.009c-5.345,11.754,6.619,14.264,9.11,14.379
		C89.419,155.938,116.217,108.677,134.475,94.552"/>
	<path fill-rule="evenodd" clip-rule="evenodd" fill="#538447" d="M59.672,110.118c21.292-10.259,46.865-16.604,62.347-24.212
		c16.214-7.97,11.638-23.128-8.965-16.188C94.522,75.955,68.883,104.171,59.672,110.118"/>
	<path fill-rule="evenodd" clip-rule="evenodd" fill="#FFFFFF" enable-background="new    " d="M165.306,187.282
		c0.358,0,0.73,0,1.123,0c0.39,0,0.759,0,1.117,0c0.213,0,0.407,0,0.585,0c0.179,0,0.338-0.012,0.479,0
		c2.484,0.205,4.738,0.814,6.761,1.809c2.02,0.996,3.035,2.096,3.035,3.305v23.736h-5.96v-23.844c0-1.273-0.554-2.273-1.654-2.979
		c-1.1-0.713-2.327-1.098-3.671-1.279c-0.226-0.033-0.41-0.111-0.584-0.111c-0.18,0-0.374,0-0.585,0c-0.076,0-0.164,0-0.267,0
		c-0.107,0-0.233,0-0.379,0c-0.208,0-0.421,0.021-0.634,0.053c-0.212,0.037-0.433,0.012-0.638,0.059
		c-1.5,0.307-2.896,0.93-4.209,1.754c-1.313,0.83-2.189,1.75-2.713,2.732c-0.123,0.225-0.246,0.443-0.32,0.691
		c-0.069,0.252-0.103,0.482-0.103,0.693v22.23h-5.857v-28.316h5.747v4.26c0.072,0,0.126-0.039,0.162-0.107
		c0.033-0.072,0.103-0.137,0.161-0.213c0.651-0.916,1.666-1.813,3.087-2.664c1.42-0.85,3.191-1.42,5.316-1.701V187.282z
		 M110.852,187.282c0.142,0.068,0.282,0.09,0.423,0.057c0.144-0.039,0.285-0.057,0.429-0.057c0.139,0,0.282,0,0.426,0
		c0.141,0,0.281,0,0.425,0c1.421,0,2.748,0.23,3.994,0.689c1.235,0.463,2.215,1.119,2.928,1.977c-0.077,0-0.128,0.016-0.164,0.051
		s-0.087,0.053-0.156,0.053c-0.069,0.07-0.129,0.127-0.162,0.162c-0.035,0.031-0.056,0.049-0.056,0.049
		c-0.142-0.141-0.282-0.264-0.421-0.369c-0.148-0.109-0.276-0.244-0.426-0.377c-0.349-0.291-0.748-0.545-1.174-0.795
		s-0.879-0.467-1.384-0.586c-0.354-0.09-0.724-0.127-1.118-0.164c-0.39-0.031-0.795-0.107-1.22-0.156c-0.216-0.021-0.41,0-0.59,0
		s-0.374,0-0.585,0c-1.348,0-2.571,0.23-3.671,0.691c-1.102,0.465-1.735,1.297-1.863,2.508c-0.013,0.139,0,0.297,0,0.471
		c0,0.18,0,0.342,0,0.482c0,0.352,0.033,0.689,0.11,1.01c0.069,0.318,0.246,0.672,0.528,1.031c0.784,0.988,1.825,1.955,3.138,2.889
		c1.31,0.93,2.676,1.82,4.102,2.664c0.133,0.082,0.246,0.123,0.317,0.158c0.069,0.035,0.185,0.076,0.318,0.158
		c1.996,1.215,3.788,2.49,5.429,3.811c1.626,1.324,2.451,2.791,2.451,4.439c0,0.498-0.11,1.027-0.323,1.598
		c-0.215,0.584-0.538,1.145-0.956,1.719c-1.141,1.559-2.556,2.738-4.258,3.516s-3.512,1.172-5.43,1.172
		c-0.779,0-1.576-0.055-2.395-0.164c-0.817-0.104-1.617-0.287-2.394-0.582c-0.716-0.271-1.397-0.605-2.077-0.963
		c-0.677-0.35-1.225-0.74-1.648-1.166c-0.141-0.07-0.269-0.16-0.374-0.27c-0.105-0.107-0.192-0.191-0.264-0.266
		c-0.144-0.068-0.213-0.125-0.213-0.158s0-0.053,0-0.053c0.069,0,0.123,0,0.161,0c0.033,0,0.085-0.037,0.159-0.109
		c0.066,0,0.141-0.031,0.21-0.104c0.072-0.076,0.108-0.178,0.108-0.32c0.494,0.641,1.025,1.133,1.594,1.49
		c0.569,0.355,1.21,0.674,1.918,0.955c0.066,0.076,0.139,0.129,0.215,0.164c0.072,0.031,0.134,0.053,0.211,0.053
		c0.641,0.215,1.261,0.406,1.866,0.584c0.6,0.18,1.176,0.383,1.753,0.482c0.282,0.043,0.59,0.012,0.905,0.051
		c0.317,0.039,0.62,0.051,0.904,0.051c0.779,0,1.544-0.09,2.287-0.264c0.748-0.176,1.477-0.471,2.184-0.904
		c0.569-0.35,0.995-0.816,1.279-1.383c0.282-0.57,0.423-1.176,0.423-1.813c0-0.07,0-0.156,0-0.266c0-0.104,0-0.193,0-0.264
		c-0.071-0.217-0.125-0.408-0.158-0.588c-0.036-0.176-0.077-0.344-0.159-0.477c-0.771-1.303-1.841-2.42-3.199-3.389
		c-1.344-0.965-2.759-1.871-4.253-2.715c-0.136-0.076-0.32-0.162-0.536-0.264c-0.21-0.107-0.39-0.234-0.527-0.393
		c-1.918-1.137-3.62-2.328-5.112-3.582c-1.484-1.248-2.232-2.752-2.232-4.541c0-0.566,0.09-1.139,0.264-1.705
		c0.18-0.584,0.375-1.205,0.697-1.828c0.744-1.441,1.805-2.412,3.087-2.982c1.271-0.563,2.691-0.922,4.255-1.063V187.282z
		 M66.231,187.282h6.281v23.846c0,1.701,0.351,2.893,1.063,3.564c0.71,0.676,2.802,1.014,6.278,1.014
		c0.423,0,0.851-0.021,1.281-0.059c0.426-0.031,0.844-0.146,1.271-0.262c1.415-0.383,2.732-0.98,3.938-1.865
		c1.21-0.887,1.813-2.076,1.813-3.564v-22.674h5.327v28.744c-0.146,0.068-0.29,0.105-0.429,0.105c-0.144,0-0.289,0-0.425,0
		c-0.287,0-0.569,0-0.854,0c-0.285,0-0.569,0-0.854,0c-0.779,0-1.436,0-1.966,0c-0.536,0-0.8,0-0.8,0v-3.941
		c-0.141,0.283-0.32,0.57-0.53,0.854c-0.211,0.283-0.519,0.498-0.852,0.746c-0.738,0.537-1.615,1.08-2.717,1.543
		c-1.1,0.463-2.472,0.732-4.097,0.799c-0.139,0.002-0.318,0-0.531,0c-0.212,0-0.464,0-0.745,0c-0.216,0-0.465,0-0.746,0
		c-0.279,0-0.605,0-0.962,0c-0.563,0-1.148,0-1.753,0c-0.607,0-1.185-0.055-1.754-0.105c-1.843-0.166-3.515-0.572-5.006-1.281
		c-1.489-0.711-2.233-1.883-2.233-3.51V187.282z M133.539,187.815h5.853v28.846h-5.853V187.815z M133.301,177.604h6.091v-8.813
		h-6.091V177.604z M20.053,168.792h9.688v45.529h29.801v1.486H20.053V168.792z"/>

</g>
</svg>
