<svg version="1.1" id="Layer_1" xmlns="http://www.w3.org/2000/svg" xmlns:xlink="http://www.w3.org/1999/xlink" x="0px" y="0px"
	 width="198.425px" height="255.118px" viewBox="0 0 198.425 255.118" enable-background="new 0 0 198.425 255.118"
	 xml:space="preserve">
<g>
	<path fill-rule="evenodd" clip-rule="evenodd" fill="#89A8BC" d="M21.256,139.664l68.429-115.75
		c3.343-5.648,10.629-7.518,16.275-4.181c2.273,1.344,3.936,3.333,4.894,5.59l24.248,42.906
		c13.101,28.452-88.999,29.009-108.919,72.82c-5.354,11.778,6.638,14.297,9.133,14.408c75.506,3.392,97.954-90.408,118.118-55.059
		l22.792,39.515c1.457,1.974,2.322,4.412,2.322,7.057c0,6.562-5.316,11.879-11.881,11.879H32.208
		C22.041,157.609,17.152,149.045,21.256,139.664z"/>
	<path fill-rule="evenodd" clip-rule="evenodd" fill="#68808F" d="M134.518,96.361c-47.462,35.919-76.566,44.029-83.243,37.356
		c-4.485-4.491-3.549-13.087,8.444-21.622v-0.117c-14.906,7.186-27.723,16.285-33.536,29.071
		c-5.354,11.778,6.638,14.297,9.133,14.408C89.355,157.887,116.219,110.52,134.518,96.361"/>
	<path fill-rule="evenodd" clip-rule="evenodd" fill="#68808F" d="M59.545,111.968c22.647-10.916,50.132-17.415,65.227-25.689
		c18.479-18.166-3.813-17.474-11.719-14.813C94.478,77.723,68.777,106.003,59.545,111.968"/>
	<path fill-rule="evenodd" clip-rule="evenodd" fill="#FFFFFF" d="M165.427,189.302c0.357,0,0.727,0,1.117,0
		c0.396,0,0.764,0,1.124,0c0.213,0,0.406,0,0.583,0c0.178,0,0.337-0.011,0.481,0c2.486,0.204,4.747,0.823,6.771,1.817
		c2.036,0.995,3.044,2.095,3.044,3.307v23.789h-5.976v-23.896c0-1.282-0.551-2.278-1.652-2.989c-1.103-0.711-2.332-1.096-3.68-1.278
		c-0.226-0.032-0.407-0.107-0.589-0.107c-0.172,0-0.372,0-0.584,0c-0.072,0-0.162,0-0.267,0c-0.11,0-0.236,0-0.374,0
		c-0.215,0-0.428,0.018-0.646,0.054c-0.21,0.038-0.425,0.012-0.635,0.054c-1.501,0.312-2.903,0.937-4.214,1.761
		c-1.319,0.827-2.199,1.752-2.718,2.737c-0.125,0.226-0.256,0.444-0.326,0.694c-0.07,0.248-0.104,0.479-0.104,0.692v22.278h-5.868
		v-28.378h5.76v4.266c0.073,0,0.127-0.033,0.162-0.103c0.035-0.076,0.104-0.136,0.16-0.215c0.652-0.913,1.672-1.813,3.095-2.666
		c1.42-0.854,3.204-1.425,5.334-1.709V189.302z M110.84,189.302c0.14,0.077,0.287,0.093,0.425,0.054
		c0.146-0.032,0.291-0.054,0.429-0.054c0.145,0,0.287,0,0.429,0c0.144,0,0.289,0,0.428,0c1.42,0,2.761,0.229,4.006,0.696
		c1.244,0.465,2.215,1.121,2.93,1.975c-0.07,0-0.126,0.017-0.158,0.052c-0.043,0.034-0.092,0.054-0.166,0.054
		c-0.069,0.069-0.117,0.127-0.16,0.161c-0.032,0.035-0.054,0.054-0.054,0.054c-0.142-0.146-0.284-0.269-0.423-0.373
		c-0.145-0.107-0.278-0.244-0.428-0.376c-0.346-0.293-0.75-0.55-1.172-0.798c-0.428-0.252-0.889-0.464-1.391-0.591
		c-0.351-0.088-0.727-0.119-1.117-0.157c-0.392-0.036-0.798-0.113-1.227-0.161c-0.213-0.023-0.414,0-0.587,0
		c-0.18,0-0.375,0-0.589,0c-1.348,0-2.582,0.23-3.68,0.691c-1.103,0.466-1.74,1.3-1.867,2.509c-0.016,0.143,0,0.306,0,0.48
		c0,0.177,0,0.339,0,0.482c0,0.354,0.037,0.692,0.106,1.01c0.069,0.321,0.252,0.677,0.529,1.034
		c0.788,0.994,1.829,1.963,3.151,2.899c1.311,0.93,2.675,1.82,4.108,2.662c0.133,0.083,0.245,0.129,0.32,0.163
		c0.075,0.035,0.188,0.077,0.321,0.16c1.998,1.215,3.798,2.493,5.438,3.823c1.633,1.322,2.454,2.793,2.454,4.444
		c0,0.498-0.109,1.03-0.318,1.6c-0.221,0.583-0.543,1.153-0.963,1.725c-1.144,1.561-2.562,2.737-4.27,3.523
		c-1.705,0.782-3.516,1.171-5.437,1.171c-0.783,0-1.581-0.054-2.399-0.161c-0.82-0.104-1.631-0.287-2.407-0.585
		c-0.711-0.272-1.401-0.604-2.075-0.959c-0.68-0.357-1.23-0.748-1.658-1.173c-0.139-0.075-0.262-0.163-0.369-0.267
		c-0.11-0.108-0.197-0.198-0.267-0.271c-0.146-0.067-0.209-0.119-0.209-0.159c0-0.033,0-0.051,0-0.051c0.063,0,0.117,0,0.155,0
		c0.037,0,0.091-0.038,0.16-0.107c0.069,0,0.142-0.036,0.214-0.107c0.072-0.069,0.102-0.175,0.102-0.317
		c0.503,0.639,1.032,1.137,1.602,1.492c0.57,0.355,1.216,0.677,1.92,0.961c0.073,0.071,0.148,0.121,0.218,0.159
		c0.07,0.031,0.14,0.054,0.208,0.054c0.646,0.214,1.269,0.408,1.872,0.585c0.603,0.181,1.184,0.383,1.764,0.479
		c0.275,0.05,0.585,0.02,0.907,0.058c0.312,0.035,0.619,0.052,0.903,0.052c0.781,0,1.545-0.09,2.289-0.271
		c0.749-0.175,1.482-0.47,2.19-0.902c0.57-0.35,0.998-0.818,1.281-1.386c0.281-0.569,0.425-1.177,0.425-1.816
		c0-0.071,0-0.159,0-0.264c0-0.107,0-0.198,0-0.269c-0.072-0.212-0.124-0.41-0.156-0.587c-0.038-0.177-0.081-0.344-0.162-0.479
		c-0.77-1.304-1.85-2.426-3.204-3.398c-1.348-0.964-2.765-1.873-4.263-2.721c-0.14-0.077-0.321-0.159-0.535-0.267
		c-0.214-0.104-0.394-0.229-0.535-0.391c-1.92-1.138-3.621-2.336-5.122-3.589c-1.483-1.252-2.232-2.761-2.232-4.553
		c0-0.572,0.088-1.138,0.263-1.711c0.181-0.582,0.368-1.207,0.694-1.83c0.745-1.443,1.813-2.42,3.092-2.983
		c1.278-0.573,2.702-0.925,4.266-1.07V189.302z M66.118,189.302h6.294v23.899c0,1.709,0.355,2.899,1.069,3.574
		c0.715,0.675,2.809,1.011,6.293,1.011c0.429,0,0.852-0.016,1.279-0.052c0.431-0.036,0.848-0.148,1.283-0.266
		c1.412-0.384,2.739-0.975,3.947-1.866c1.204-0.891,1.812-2.082,1.812-3.576v-22.725h5.336v28.806
		c-0.145,0.075-0.286,0.107-0.428,0.107c-0.14,0-0.284,0-0.423,0c-0.289,0-0.572,0-0.855,0c-0.287,0-0.572,0-0.854,0
		c-0.784,0-1.444,0-1.972,0c-0.534,0-0.805,0-0.805,0v-3.946c-0.14,0.282-0.318,0.568-0.535,0.855
		c-0.211,0.284-0.519,0.503-0.848,0.745c-0.741,0.537-1.62,1.083-2.724,1.546c-1.104,0.464-2.468,0.736-4.107,0.8
		c-0.144,0.006-0.318,0-0.532,0c-0.217,0-0.463,0-0.745,0c-0.213,0-0.466,0-0.747,0c-0.286,0-0.607,0-0.963,0
		c-0.57,0-1.152,0-1.758,0c-0.604,0-1.192-0.056-1.76-0.107c-1.854-0.158-3.524-0.565-5.014-1.278
		c-1.496-0.71-2.245-1.884-2.245-3.519V189.302z M133.577,189.837h5.871v28.914h-5.871V189.837z M133.348,179.602h6.101v-8.829
		h-6.101V179.602z M19.838,170.772h9.705v45.63h29.873v1.493H19.838V170.772z"/>
	<path fill="#FFFFFF" d="M178.548,232.176h-7.197c0,1.001,0.259,1.866,0.745,2.616c0.495,0.761,1.264,1.147,2.333,1.147
		c1.266,0,2.289-0.725,3.047-2.174l1.146,0.632c-0.417,0.76-0.92,1.396-1.5,1.89c-0.588,0.506-1.468,0.752-2.64,0.752
		c-1.434,0-2.535-0.49-3.322-1.449c-0.786-0.958-1.189-2.082-1.189-3.388c0-1.497,0.382-2.699,1.146-3.597
		c0.76-0.896,1.843-1.336,3.247-1.336c0.795,0,1.503,0.165,2.13,0.515c0.628,0.356,1.122,0.904,1.498,1.631
		C178.366,230.149,178.548,231.07,178.548,232.176z M177.051,231.122c-0.054-0.712-0.298-1.328-0.721-1.84
		c-0.436-0.52-1.146-0.776-2.104-0.776c-1.627,0-2.552,0.874-2.787,2.616H177.051z M141.731,232.224c0-0.891,0.223-1.715,0.65-2.479
		c0.425-0.759,1.011-1.368,1.758-1.803c0.732-0.431,1.548-0.651,2.452-0.651c1.385,0,2.563,0.436,3.531,1.309
		c0.965,0.871,1.449,2.061,1.449,3.576c0,1.497-0.498,2.68-1.495,3.552c-1.001,0.873-2.187,1.312-3.561,1.312
		c-1.324,0-2.449-0.427-3.391-1.267C142.2,234.943,141.731,233.76,141.731,232.224z M150.233,232.182
		c0-1.063-0.342-1.952-1.025-2.665c-0.686-0.705-1.533-1.058-2.547-1.058c-0.969,0-1.797,0.371-2.495,1.107
		c-0.701,0.729-1.056,1.604-1.056,2.638c0,1.04,0.342,1.923,1.032,2.642c0.681,0.715,1.467,1.07,2.353,1.07
		c0.979,0,1.855-0.348,2.622-1.047C149.868,234.183,150.233,233.286,150.233,232.182z M152.979,236.686v-9.374h1.165v2.505
		c0.6-1.1,2.316-2.505,4.234-2.505c1.008,0,1.811,0.264,2.404,0.794c0.385,0.343,0.619,0.794,0.754,1.29
		c0.748-1.009,2.273-2.084,3.954-2.084c1.004,0,1.811,0.264,2.403,0.794c0.591,0.527,0.888,1.344,0.888,2.455v6.125h-1.237v-5.563
		c0-0.952-0.182-1.64-0.536-2.052c-0.374-0.429-0.979-0.638-1.824-0.638c-1.396,0-2.867,0.669-3.514,2.003v0.125v6.125h-0.342
		h-0.091h-0.806v-5.563c0-0.952-0.174-1.64-0.537-2.052c-0.37-0.429-0.979-0.638-1.818-0.638c-1.861,0-3.86,1.186-3.86,3.557v4.696
		H152.979z M131.276,236.686V220.86h1.173v8.956c0.595-1.1,2.311-2.505,4.226-2.505c1.015,0,1.813,0.264,2.406,0.794
		c0.589,0.527,0.889,1.344,0.889,2.455v6.125h-1.236v-5.563c0-0.952-0.179-1.64-0.54-2.052c-0.369-0.429-0.979-0.638-1.819-0.638
		c-1.861,0-3.86,1.186-3.86,3.557v4.696H131.276z"/>
</g>
</svg>
