<svg version="1.1" id="Layer_1" xmlns="http://www.w3.org/2000/svg" xmlns:xlink="http://www.w3.org/1999/xlink" x="0px" y="0px"
	 width="198.425px" height="255.118px" viewBox="0 0 198.425 255.118" enable-background="new 0 0 198.425 255.118"
	 xml:space="preserve">
<g>
	<g>
		<path fill-rule="evenodd" clip-rule="evenodd" fill="#DCBF4A" d="M21.288,139.767L89.722,24.014
			c3.341-5.645,10.626-7.521,16.271-4.179c2.274,1.343,3.933,3.33,4.889,5.594l24.253,42.902
			C148.23,96.78,46.14,97.336,26.224,141.148c-5.356,11.779,6.636,14.299,9.125,14.41c75.512,3.394,97.95-90.405,118.117-55.056
			l22.795,39.508c1.453,1.975,2.32,4.416,2.32,7.062c0,6.557-5.317,11.88-11.882,11.88H32.24
			C22.074,157.709,17.188,149.146,21.288,139.767z"/>
		<path fill-rule="evenodd" clip-rule="evenodd" fill="#D29434" d="M134.552,96.463c-47.462,35.916-76.566,44.027-83.237,37.353
			c-4.496-4.487-3.56-13.086,8.437-21.622v-0.117c-14.907,7.185-27.717,16.285-33.528,29.071
			c-5.356,11.779,6.636,14.299,9.125,14.41C89.395,157.985,116.251,110.62,134.552,96.463"/>
		<path fill-rule="evenodd" clip-rule="evenodd" fill="#D29434" d="M59.583,112.066c22.646-10.916,50.123-17.413,65.223-25.692
			c18.48-18.16-3.813-17.47-11.724-14.806C94.515,77.819,68.813,106.102,59.583,112.066"/>
	</g>
	<g>
		<path fill-rule="evenodd" clip-rule="evenodd" fill="#FFFFFF" d="M165.46,189.401c0.355,0,0.727,0,1.125,0
			c0.382,0,0.762,0,1.108,0c0.216,0,0.416,0,0.593,0c0.175,0,0.336-0.01,0.483,0c2.481,0.198,4.744,0.819,6.772,1.815
			c2.028,0.993,3.041,2.096,3.041,3.307v23.794h-5.975v-23.901c0-1.28-0.551-2.276-1.654-2.986c-1.103-0.712-2.334-1.098-3.677-1.28
			c-0.229-0.03-0.413-0.106-0.587-0.106c-0.18,0-0.371,0-0.589,0c-0.071,0-0.159,0-0.266,0c-0.108,0-0.237,0-0.374,0
			c-0.213,0-0.429,0.017-0.639,0.056c-0.215,0.032-0.432,0.01-0.649,0.051c-1.496,0.313-2.893,0.937-4.209,1.761
			c-1.318,0.831-2.2,1.753-2.718,2.735c-0.115,0.229-0.247,0.447-0.317,0.695c-0.074,0.249-0.109,0.478-0.109,0.694v22.282h-5.866
			v-28.384h5.763v4.27c0.065,0,0.122-0.038,0.158-0.106c0.035-0.071,0.101-0.134,0.155-0.215c0.658-0.913,1.676-1.813,3.101-2.665
			c1.417-0.854,3.199-1.425,5.331-1.709V189.401z M110.874,189.401c0.147,0.074,0.287,0.091,0.429,0.056
			c0.136-0.036,0.284-0.056,0.423-0.056c0.145,0,0.289,0,0.428,0c0.146,0,0.29,0,0.426,0c1.422,0,2.757,0.231,4.004,0.697
			c1.243,0.461,2.228,1.118,2.935,1.971c-0.071,0-0.125,0.018-0.164,0.053c-0.03,0.037-0.087,0.056-0.155,0.056
			c-0.074,0.07-0.131,0.123-0.161,0.157c-0.039,0.035-0.055,0.053-0.055,0.053c-0.145-0.14-0.284-0.266-0.431-0.368
			c-0.134-0.109-0.271-0.246-0.423-0.377c-0.347-0.298-0.742-0.551-1.174-0.799c-0.426-0.249-0.888-0.465-1.384-0.588
			c-0.355-0.088-0.732-0.125-1.128-0.157c-0.385-0.039-0.794-0.115-1.222-0.165c-0.21-0.021-0.408,0-0.587,0
			c-0.178,0-0.374,0-0.587,0c-1.351,0-2.577,0.234-3.677,0.693c-1.105,0.465-1.744,1.299-1.867,2.509c-0.017,0.142,0,0.302,0,0.478
			c0,0.181,0,0.342,0,0.483c0,0.352,0.033,0.69,0.106,1.013c0.074,0.32,0.248,0.675,0.532,1.031
			c0.781,0.991,1.827,1.961,3.147,2.899c1.31,0.928,2.678,1.82,4.111,2.664c0.131,0.082,0.24,0.125,0.314,0.161
			c0.071,0.036,0.18,0.08,0.319,0.159c1.998,1.214,3.802,2.497,5.44,3.823c1.632,1.322,2.457,2.793,2.457,4.447
			c0,0.494-0.114,1.028-0.317,1.599c-0.221,0.584-0.542,1.149-0.966,1.726c-1.141,1.559-2.558,2.737-4.261,3.52
			c-1.711,0.785-3.525,1.179-5.449,1.179c-0.778,0-1.578-0.061-2.399-0.163c-0.816-0.11-1.621-0.29-2.396-0.59
			c-0.715-0.272-1.405-0.604-2.08-0.959c-0.674-0.356-1.226-0.748-1.654-1.174c-0.142-0.07-0.27-0.161-0.374-0.265
			c-0.109-0.108-0.194-0.196-0.266-0.27c-0.147-0.069-0.212-0.12-0.212-0.159c0-0.035,0-0.055,0-0.055c0.065,0,0.123,0,0.161,0
			c0.03,0,0.088-0.035,0.152-0.106c0.077,0,0.145-0.035,0.213-0.106c0.079-0.07,0.112-0.178,0.112-0.319
			c0.5,0.64,1.035,1.139,1.599,1.497c0.574,0.354,1.212,0.673,1.921,0.957c0.066,0.069,0.137,0.123,0.208,0.157
			c0.074,0.039,0.147,0.054,0.218,0.054c0.645,0.218,1.261,0.415,1.865,0.589c0.605,0.178,1.185,0.386,1.758,0.481
			c0.287,0.046,0.587,0.017,0.906,0.055c0.319,0.035,0.628,0.048,0.909,0.048c0.781,0,1.548-0.086,2.293-0.264
			c0.753-0.179,1.485-0.474,2.192-0.909c0.573-0.348,0.994-0.813,1.275-1.385c0.289-0.567,0.431-1.172,0.431-1.813
			c0-0.07,0-0.161,0-0.265c0-0.108,0-0.196,0-0.273c-0.07-0.212-0.122-0.403-0.158-0.583c-0.041-0.175-0.087-0.346-0.164-0.479
			c-0.772-1.307-1.842-2.424-3.202-3.399c-1.346-0.965-2.765-1.871-4.267-2.718c-0.139-0.079-0.314-0.158-0.533-0.269
			c-0.212-0.104-0.393-0.228-0.529-0.388c-1.922-1.139-3.623-2.335-5.124-3.591c-1.488-1.251-2.238-2.76-2.238-4.553
			c0-0.571,0.084-1.137,0.259-1.709c0.186-0.587,0.379-1.21,0.698-1.833c0.742-1.438,1.815-2.415,3.096-2.985
			c1.275-0.571,2.702-0.925,4.264-1.067V189.401z M66.156,189.401h6.292v23.899c0,1.702,0.358,2.897,1.073,3.57
			c0.707,0.676,2.801,1.016,6.289,1.016c0.429,0,0.857-0.021,1.283-0.057c0.428-0.031,0.843-0.146,1.28-0.266
			c1.414-0.381,2.735-0.978,3.941-1.865c1.209-0.89,1.818-2.08,1.818-3.572v-22.726h5.332v28.804
			c-0.14,0.073-0.282,0.112-0.429,0.112c-0.137,0-0.278,0-0.42,0c-0.287,0-0.576,0-0.857,0c-0.284,0-0.568,0-0.854,0
			c-0.778,0-1.439,0-1.974,0c-0.534,0-0.797,0-0.797,0v-3.953c-0.139,0.284-0.322,0.568-0.535,0.852
			c-0.212,0.291-0.521,0.508-0.851,0.749c-0.731,0.539-1.622,1.086-2.725,1.544c-1.103,0.468-2.465,0.738-4.105,0.809
			c-0.14,0-0.322,0-0.532,0c-0.21,0-0.462,0-0.749,0c-0.216,0-0.459,0-0.745,0c-0.287,0-0.601,0-0.961,0c-0.574,0-1.158,0-1.761,0
			c-0.606,0-1.19-0.063-1.756-0.112c-1.85-0.164-3.526-0.57-5.017-1.28c-1.496-0.709-2.241-1.884-2.241-3.521V189.401z
			 M133.61,189.934h5.872v28.912h-5.872V189.934z M133.377,179.697h6.104v-8.827h-6.104V179.697z M19.872,170.87h9.712v45.629
			h29.866v1.49H19.872V170.87z"/>
		<path fill-rule="evenodd" clip-rule="evenodd" fill="#FFFFFF" d="M129.313,237.63v-1.448c0-0.782-0.262-1.445-0.783-2.003
			c-0.527-0.556-1.179-0.831-1.963-0.831c-0.966,0-1.722,0.354-2.273,1.059c-0.543,0.705-0.819,1.692-0.819,2.965
			c0,1.092,0.265,1.965,0.789,2.62c0.524,0.655,1.223,0.978,2.083,0.978c0.882,0,1.595-0.309,2.148-0.937
			C129.04,239.407,129.313,238.604,129.313,237.63 M168.924,237.3h-7.406c0,1.026,0.254,1.922,0.77,2.691
			c0.491,0.786,1.297,1.185,2.397,1.185c1.304,0,2.342-0.751,3.133-2.241l1.18,0.652c-0.429,0.781-0.945,1.428-1.542,1.944
			c-0.612,0.516-1.506,0.775-2.71,0.775c-1.477,0-2.621-0.502-3.424-1.494c-0.815-0.98-1.228-2.137-1.228-3.488
			c0-1.542,0.391-2.771,1.186-3.701c0.78-0.916,1.891-1.373,3.338-1.373c0.821,0,1.553,0.177,2.195,0.535
			c0.636,0.364,1.152,0.928,1.539,1.681C168.73,235.219,168.924,236.161,168.924,237.3z M167.382,236.219
			c-0.061-0.737-0.301-1.368-0.743-1.897c-0.453-0.531-1.174-0.794-2.17-0.794c-1.666,0-2.621,0.896-2.858,2.691H167.382z
			 M157.74,242.061v-1.682c-0.677,1.375-1.769,2.069-3.292,2.069c-1.417,0-2.498-0.491-3.246-1.466
			c-0.772-0.98-1.16-2.126-1.16-3.437c0-1.67,0.426-2.946,1.28-3.83c0.83-0.865,1.881-1.298,3.145-1.298
			c1.45,0,2.533,0.673,3.273,2.016v-8.653h1.272v16.28H157.74z M151.462,237.513c0,1.01,0.24,1.892,0.718,2.647
			c0.467,0.773,1.267,1.157,2.377,1.157c1.031,0,1.829-0.401,2.389-1.201c0.562-0.791,0.838-1.708,0.838-2.765
			c0-1.125-0.249-2.028-0.748-2.719c-0.511-0.689-1.259-1.035-2.254-1.035c-1.182,0-2.037,0.383-2.547,1.152
			C151.721,235.52,151.462,236.437,151.462,237.513z M140.375,241.918v-1.685c-0.771,1.379-1.93,2.073-3.489,2.073
			c-1.316,0-2.334-0.462-3.074-1.379c-0.786-0.948-1.184-2.229-1.184-3.844c0-1.313,0.412-2.451,1.23-3.415
			c0.781-0.947,1.816-1.419,3.099-1.419c1.676,0,2.812,0.683,3.418,2.047v-1.687h1.299v9.308H140.375z M137.028,241.176
			c0.947,0,1.741-0.339,2.386-1.013c0.638-0.675,0.961-1.628,0.961-2.858c0-1.123-0.282-2.041-0.841-2.768
			c-0.56-0.723-1.313-1.087-2.244-1.087c-0.898,0-1.659,0.317-2.281,0.939c-0.62,0.639-0.934,1.554-0.934,2.719
			c0,1.142,0.268,2.103,0.797,2.883C135.395,240.777,136.116,241.176,137.028,241.176z M148.527,233.297
			c-1.755-0.715-3.529,1.754-3.529,4.106v4.984h-1.566v-9.777h1.566v2.014h0.041c0.224-0.688,0.56-1.223,1.018-1.607
			c0.453-0.39,0.974-0.581,1.537-0.581c0.406,0,0.718,0.044,0.933,0.133V233.297z M178.582,242.415h-1.903v-8.135
			c0-0.578-0.108-0.987-0.319-1.218c-0.216-0.229-0.849-0.344-1.902-0.344c-0.126,0-0.259,0.006-0.388,0.022
			c-0.124,0.009-0.251,0.049-0.385,0.086c-0.427,0.133-0.824,0.333-1.19,0.637c-0.363,0.304-0.549,0.707-0.549,1.216v7.735h-1.612
			v-9.805c0.049-0.022,0.095-0.036,0.13-0.036c0.047,0,0.085,0,0.134,0c0.087,0,0.172,0,0.257,0s0.169,0,0.257,0
			c0.234,0,0.437,0,0.595,0c0.161,0,0.24,0,0.24,0v1.341c0.044-0.096,0.099-0.191,0.165-0.29c0.063-0.095,0.161-0.169,0.259-0.251
			c0.218-0.186,0.488-0.372,0.816-0.526c0.333-0.158,0.745-0.248,1.239-0.273c0.043-0.003,0.104,0,0.164,0c0.065,0,0.145,0,0.227,0
			c0.06,0,0.139,0,0.227,0c0.084,0,0.18,0,0.284,0c0.174,0,0.353,0,0.532,0c0.186,0,0.357,0.02,0.532,0.036
			c0.563,0.06,1.064,0.196,1.518,0.438c0.448,0.238,0.674,0.64,0.674,1.201V242.415z M130.886,241.258
			c0,3.587-1.717,5.383-5.156,5.383c-1.209,0-2.263-0.229-3.172-0.683v-0.784c2.981,1.659,6.756,0.577,6.756-3.693v-1.064h-0.036
			c-0.748,1.24-1.867,1.863-3.355,1.863c-1.217,0-2.195-0.432-2.937-1.3c-0.74-0.871-1.119-2.043-1.119-3.505
			c0-1.662,0.404-2.984,1.198-3.964c0.806-0.982,1.897-1.474,3.281-1.474c1.319,0,2.293,0.523,2.932,1.577h0.036v-1.344h1.572
			V241.258z"/>
	</g>
</g>
</svg>
