<svg version="1.1" id="Layer_1" xmlns="http://www.w3.org/2000/svg" xmlns:xlink="http://www.w3.org/1999/xlink" x="0px" y="0px"
	 width="113.39px" height="113.39px" viewBox="0 0 113.39 113.39" enable-background="new 0 0 113.39 113.39" xml:space="preserve">
<polygon fill="#FFFFFF" points="55.546,24.017 55.546,48.571 28.286,48.571 28.286,89.373 30.583,89.373 30.583,50.869 
	55.546,50.869 55.546,57.242 41.195,57.242 41.195,59.539 55.546,59.539 55.546,65.248 41.195,65.248 41.195,67.545 55.546,67.545 
	55.546,73.254 41.195,73.254 41.195,75.551 55.546,75.551 55.546,81.26 41.195,81.26 41.195,83.559 55.546,83.559 55.546,89.175 
	55.546,89.373 57.843,89.373 57.843,89.175 57.844,89.175 57.844,26.313 82.807,26.313 82.807,32.649 68.889,32.649 68.889,34.946 
	82.807,34.946 82.807,40.656 68.889,40.656 68.889,42.954 82.807,42.954 82.807,48.664 68.889,48.664 68.889,50.96 82.807,50.96 
	82.807,56.67 68.889,56.67 68.889,58.968 82.807,58.968 82.807,64.676 68.889,64.676 68.889,66.974 82.807,66.974 82.807,72.683 
	68.889,72.683 68.889,74.981 82.807,74.981 82.807,80.818 68.889,80.818 68.889,83.115 82.807,83.115 82.807,89.175 85.104,89.175 
	85.104,24.017 "/>
</svg>
