<svg version="1.1" id="Layer_1" xmlns="http://www.w3.org/2000/svg"  x="0px" y="0px"
	 width="198.425px" height="255.118px" viewBox="0 0 198.425 255.118" enable-background="new 0 0 198.425 255.118"
	 xml:space="preserve">
<g>
	<path fill-rule="evenodd" clip-rule="evenodd" fill="#FFFFFF" d="M21.27,136.367L88.914,21.942c0.594-1.009,1.13-1.964,1.9-2.872
		c3.717-4.366,10.146-5.563,15.263-2.536c3.147,1.858,3.809,3.638,5.459,6.563l24.011,42.478
		c13.246,28.775-90.011,29.341-110.155,73.65c-5.417,11.906,6.715,14.456,9.235,14.567c76.363,3.438,99.061-91.434,119.456-55.684
		l21.814,37.813c0.771,1.34,1.817,2.821,2.449,4.17c0.729,1.553,1.139,3.29,1.139,5.119c0,6.209-4.706,11.318-10.751,11.948
		c-1.23,0.132-2.586,0.07-3.826,0.07H32.463c-0.737,0-1.226-0.016-1.955-0.143c-8.917-1.554-13.43-8.892-10.846-17.264
		C20.102,138.405,20.528,137.614,21.27,136.367z"/>
	<path fill="#FFFFFF" d="M21.27,136.367L88.914,21.942c0.594-1.009,1.13-1.964,1.9-2.872c3.717-4.366,10.146-5.563,15.263-2.536
		c3.147,1.858,3.809,3.638,5.459,6.563l24.011,42.478c13.246,28.775-90.011,29.341-110.155,73.65
		c-5.417,11.906,6.715,14.456,9.235,14.567c76.363,3.438,99.061-91.434,119.456-55.684l21.814,37.813
		c0.771,1.34,1.817,2.821,2.449,4.17c0.729,1.553,1.139,3.29,1.139,5.119c0,6.209-4.706,11.318-10.751,11.948
		c-1.23,0.132-2.586,0.07-3.826,0.07H32.463c-0.737,0-1.226-0.016-1.955-0.143c-8.917-1.554-13.43-8.892-10.846-17.264
		C20.102,138.405,20.528,137.614,21.27,136.367z"/>
	<path fill-rule="evenodd" clip-rule="evenodd" fill="#96979A" d="M134.953,94.028c-47.998,36.326-77.431,44.527-84.184,37.779
		c-4.542-4.542-3.592-13.236,8.536-21.863v-0.126c-15.074,7.268-28.034,16.473-33.912,29.407
		c-5.417,11.906,6.715,14.456,9.235,14.567C89.282,156.255,116.455,108.345,134.953,94.028"/>
	<path fill-rule="evenodd" clip-rule="evenodd" fill="#96979A" d="M59.133,109.81c21.583-10.402,47.509-16.832,63.195-24.543
		c16.442-8.079,11.796-23.447-9.08-16.414C94.464,75.174,68.469,103.781,59.133,109.81"/>
	<path fill-rule="evenodd" clip-rule="evenodd" fill="#FFFFFF" d="M166.215,188.028c0.361,0,0.737,0,1.13,0s0.779,0,1.138,0
		c0.21,0,0.407,0,0.586,0c0.184,0,0.343-0.014,0.485,0c2.521,0.2,4.806,0.821,6.853,1.828c2.051,1.01,3.078,2.127,3.078,3.35v24.059
		h-6.041v-24.163c0-1.303-0.562-2.306-1.679-3.026c-1.113-0.721-2.361-1.109-3.717-1.294c-0.226-0.029-0.419-0.113-0.595-0.113
		c-0.176,0-0.377,0-0.594,0c-0.067,0-0.159,0-0.269,0c-0.108,0-0.234,0-0.376,0c-0.218,0-0.435,0.024-0.649,0.059
		s-0.436,0.014-0.648,0.055c-1.516,0.318-2.931,0.946-4.263,1.78c-1.327,0.837-2.218,1.778-2.75,2.77
		c-0.12,0.228-0.247,0.443-0.321,0.696c-0.072,0.255-0.109,0.489-0.109,0.702v22.535h-5.936v-28.697h5.827v4.312
		c0.072,0,0.126-0.032,0.164-0.106c0.033-0.068,0.1-0.13,0.159-0.214c0.662-0.926,1.695-1.838,3.126-2.702
		c1.44-0.861,3.24-1.435,5.4-1.724V188.028z M111.013,188.028c0.143,0.07,0.285,0.087,0.431,0.055
		c0.142-0.038,0.284-0.055,0.431-0.055c0.142,0,0.285,0,0.431,0c0.142,0,0.285,0,0.431,0c1.436,0,2.785,0.226,4.049,0.698
		c1.256,0.469,2.243,1.13,2.964,1.997c-0.072,0-0.126,0.022-0.159,0.054c-0.042,0.034-0.089,0.055-0.164,0.055
		c-0.07,0.073-0.125,0.123-0.163,0.164c-0.034,0.034-0.051,0.05-0.051,0.05c-0.15-0.141-0.292-0.269-0.431-0.377
		c-0.146-0.107-0.281-0.246-0.436-0.38c-0.347-0.298-0.757-0.558-1.18-0.808c-0.44-0.252-0.9-0.471-1.411-0.591
		c-0.352-0.089-0.732-0.13-1.13-0.164c-0.394-0.034-0.804-0.111-1.243-0.159c-0.214-0.029-0.411,0-0.591,0c-0.18,0-0.381,0-0.593,0
		c-1.369,0-2.608,0.234-3.726,0.7c-1.109,0.464-1.759,1.311-1.884,2.531c-0.017,0.144,0,0.312,0,0.486c0,0.185,0,0.349,0,0.487
		c0,0.358,0.033,0.702,0.109,1.025c0.066,0.32,0.25,0.682,0.539,1.046c0.792,1,1.847,1.982,3.183,2.931
		c1.327,0.941,2.708,1.845,4.152,2.69c0.139,0.084,0.251,0.13,0.323,0.163c0.075,0.039,0.184,0.08,0.322,0.169
		c2.022,1.226,3.847,2.52,5.505,3.863c1.65,1.335,2.482,2.826,2.482,4.495c0,0.503-0.108,1.042-0.318,1.617
		c-0.225,0.594-0.548,1.162-0.974,1.744c-1.156,1.575-2.592,2.771-4.321,3.563c-1.725,0.792-3.559,1.186-5.5,1.186
		c-0.791,0-1.6-0.051-2.424-0.159c-0.829-0.109-1.645-0.294-2.429-0.599c-0.723-0.272-1.422-0.611-2.105-0.971
		c-0.682-0.357-1.243-0.75-1.674-1.18c-0.142-0.073-0.268-0.169-0.377-0.278c-0.108-0.1-0.188-0.192-0.271-0.268
		c-0.142-0.066-0.214-0.125-0.214-0.155c0-0.041,0-0.059,0-0.059c0.072,0,0.126,0,0.159,0c0.038,0,0.092-0.036,0.167-0.104
		c0.067,0,0.147-0.041,0.214-0.109c0.072-0.075,0.109-0.185,0.109-0.32c0.506,0.639,1.042,1.146,1.62,1.503
		c0.569,0.359,1.222,0.688,1.946,0.971c0.063,0.08,0.138,0.13,0.209,0.166c0.072,0.034,0.139,0.05,0.217,0.05
		c0.654,0.223,1.277,0.416,1.884,0.601c0.611,0.175,1.193,0.384,1.784,0.479c0.281,0.048,0.59,0.022,0.921,0.06
		c0.318,0.034,0.623,0.055,0.912,0.055c0.792,0,1.563-0.092,2.324-0.275c0.754-0.178,1.49-0.473,2.21-0.919
		c0.578-0.354,1.005-0.827,1.294-1.396c0.289-0.58,0.431-1.189,0.431-1.84c0-0.07,0-0.162,0-0.267c0-0.108,0-0.197,0-0.272
		c-0.075-0.214-0.126-0.412-0.167-0.592c-0.029-0.179-0.076-0.348-0.159-0.483c-0.774-1.324-1.867-2.454-3.235-3.438
		c-1.361-0.976-2.802-1.896-4.316-2.745c-0.139-0.079-0.328-0.168-0.54-0.272c-0.214-0.113-0.394-0.234-0.54-0.398
		c-1.938-1.146-3.664-2.364-5.174-3.633c-1.508-1.265-2.27-2.788-2.27-4.601c0-0.577,0.092-1.146,0.269-1.726
		c0.184-0.599,0.381-1.226,0.703-1.854c0.758-1.462,1.833-2.449,3.132-3.022c1.289-0.577,2.733-0.935,4.315-1.08V188.028z
		 M65.781,188.028h6.368v24.17c0,1.726,0.36,2.931,1.08,3.608c0.72,0.687,2.838,1.025,6.363,1.025c0.436,0,0.867-0.016,1.294-0.055
		c0.431-0.031,0.858-0.149,1.298-0.271c1.431-0.382,2.767-0.989,3.989-1.887c1.223-0.896,1.834-2.104,1.834-3.613v-22.979h5.396
		v29.127c-0.143,0.07-0.289,0.109-0.431,0.109s-0.289,0-0.431,0c-0.285,0-0.574,0-0.862,0c-0.289,0-0.574,0-0.862,0
		c-0.792,0-1.457,0-2.001,0c-0.536,0-0.808,0-0.808,0v-3.993c-0.143,0.289-0.322,0.573-0.536,0.871
		c-0.213,0.284-0.527,0.502-0.862,0.752c-0.745,0.544-1.637,1.097-2.754,1.563c-1.113,0.469-2.5,0.743-4.157,0.808
		c-0.142,0.004-0.317,0-0.535,0c-0.214,0-0.469,0-0.754,0c-0.218,0-0.468,0-0.757,0c-0.29,0-0.607,0-0.967,0
		c-0.578,0-1.172,0-1.783,0s-1.206-0.06-1.779-0.109c-1.871-0.159-3.563-0.573-5.065-1.294c-1.52-0.719-2.273-1.903-2.273-3.554
		V188.028z M134.007,188.567h5.936v29.236h-5.936V188.567z M133.768,178.212h6.175v-8.93h-6.175V178.212z M18.971,169.282h9.82
		v46.149H59v1.515H18.971V169.282z"/>
	<path fill-rule="evenodd" clip-rule="evenodd" fill="#FFFFFF" d="M171.975,230.196v1.38c0,0.821,0.264,1.52,0.796,2.095
		c0.531,0.568,1.21,0.853,2.021,0.853c0.963,0,1.712-0.373,2.252-1.101c0.548-0.741,0.816-1.767,0.816-3.067
		c0-1.11-0.251-1.977-0.762-2.604c-0.507-0.626-1.197-0.939-2.056-0.939c-0.934,0-1.67,0.323-2.23,0.964
		C172.251,228.416,171.975,229.226,171.975,230.196 M172.013,234.193h-0.038v5.965h-1.586v-14.431h1.586v1.722h0.038
		c0.784-1.306,1.918-1.96,3.42-1.96c1.273,0,2.27,0.445,2.981,1.332c0.711,0.883,1.072,2.063,1.072,3.559
		c0,1.648-0.402,2.983-1.206,3.973c-0.804,1.001-1.909,1.494-3.308,1.494C173.695,235.847,172.708,235.299,172.013,234.193z
		 M154.335,226.813c-1.022,0-1.826,0.348-2.416,1.039c-0.598,0.698-0.887,1.658-0.887,2.877c0,1.175,0.296,2.105,0.896,2.773
		c0.603,0.688,1.402,1.021,2.407,1.021c1.021,0,1.808-0.33,2.36-0.996c0.549-0.666,0.821-1.607,0.821-2.843
		c0-1.243-0.271-2.194-0.821-2.862C156.143,227.151,155.356,226.813,154.335,226.813z M154.218,235.847
		c-1.461,0-2.63-0.462-3.5-1.385c-0.867-0.926-1.31-2.148-1.31-3.677c0-1.662,0.456-2.954,1.361-3.897
		c0.912-0.928,2.138-1.398,3.684-1.398c1.469,0,2.621,0.457,3.453,1.366c0.826,0.907,1.24,2.163,1.24,3.774
		c0,1.574-0.453,2.843-1.339,3.798C156.914,235.374,155.717,235.847,154.218,235.847z M149.604,226.419
		c-1.775-0.723-3.575,1.776-3.575,4.152v5.041h-1.583v-9.885h1.583v2.04h0.042c0.225-0.698,0.565-1.239,1.029-1.633
		c0.46-0.394,0.984-0.582,1.558-0.582c0.411,0,0.72,0.039,0.946,0.13V226.419z M140.893,231.142v-1.462
		c0-0.782-0.264-1.46-0.796-2.021c-0.531-0.563-1.192-0.846-1.979-0.846c-0.984,0-1.75,0.361-2.303,1.068
		c-0.552,0.714-0.829,1.72-0.829,3.004c0,1.104,0.268,1.985,0.794,2.651c0.528,0.657,1.236,0.987,2.115,0.987
		c0.887,0,1.608-0.313,2.164-0.95C140.612,232.94,140.893,232.138,140.893,231.142z M160.472,225.728h1.918v8.223
		c0,0.592,0.108,0.996,0.33,1.23c0.214,0.234,0.855,0.348,1.914,0.348c0.134,0,0.259,0,0.394-0.016
		c0.134-0.014,0.26-0.055,0.393-0.094c0.428-0.129,0.833-0.334,1.207-0.644c0.372-0.302,0.548-0.716,0.548-1.228v-7.82h1.628v9.91
		c-0.042,0.034-0.083,0.034-0.13,0.034c-0.042,0-0.087,0-0.129,0c-0.084,0-0.176,0-0.259,0c-0.092,0-0.176,0-0.26,0
		c-0.238,0-0.443,0-0.603,0c-0.167,0-0.247,0-0.247,0v-1.354c-0.042,0.096-0.097,0.198-0.164,0.294
		c-0.066,0.1-0.158,0.17-0.259,0.254c-0.222,0.185-0.493,0.378-0.824,0.537c-0.339,0.154-0.758,0.245-1.26,0.269
		c-0.042,0.007-0.097,0-0.156,0c-0.07,0-0.146,0-0.229,0c-0.072,0-0.142,0-0.231,0c-0.083,0-0.188,0-0.297,0
		c-0.167,0-0.351,0-0.532,0c-0.188,0-0.364-0.019-0.54-0.034c-0.565-0.055-1.071-0.193-1.528-0.437
		c-0.456-0.25-0.682-0.648-0.682-1.212V225.728z M142.479,234.816c0,3.625-1.737,5.446-5.215,5.446
		c-1.222,0-2.287-0.239-3.208-0.693v-0.796c3.014,1.678,6.836,0.587,6.836-3.729v-1.078h-0.038
		c-0.753,1.258-1.888,1.881-3.399,1.881c-1.23,0-2.218-0.435-2.959-1.314c-0.757-0.88-1.135-2.064-1.135-3.543
		c0-1.689,0.406-3.018,1.21-4.013c0.813-0.992,1.921-1.487,3.324-1.487c1.332,0,2.32,0.532,2.959,1.596h0.038v-1.357h1.586V234.816z
		"/>
</g>
</svg>
