<svg version="1.1" id="Layer_1" xmlns="http://www.w3.org/2000/svg" xmlns:xlink="http://www.w3.org/1999/xlink" x="0px" y="0px"
	 width="113.39px" height="113.39px" viewBox="0 0 113.39 113.39" enable-background="new 0 0 113.39 113.39" xml:space="preserve">
<g>
	<path fill="#FFFFFF" d="M89.578,78.164l-2.693-2.69c-0.135-0.134-0.271-0.26-0.414-0.379L60.254,48.878
		c-1.564-1.861-2.564-3.627-3.146-5.555c-0.237-0.788-0.552-2.813-0.637-3.545c0.007-0.208,0.031-0.412,0.031-0.622
		c0-0.162-0.035-0.315-0.096-0.455c-0.448-9.082-7.955-16.339-17.148-16.339c-1.538,0-3.066,0.206-4.549,0.611l-1.903,0.524
		l5.602,5.603l0.089,0.083c0.121,0.094,0.234,0.199,0.346,0.309l3.167,3.165c1.753,1.754,1.753,4.608,0,6.361l-3.167,3.167
		c-0.85,0.848-1.979,1.315-3.181,1.316c-1.2,0-2.33-0.466-3.179-1.316l-9.217-9.227l-0.537,1.876
		c-0.439,1.537-0.661,3.124-0.661,4.717c0,8.073,5.726,15.146,13.564,16.804c0.924,0.241,1.938,0.369,3.001,0.418
		c0.088,0.021,0.172,0.054,0.266,0.054c0.101,0,0.198-0.014,0.299-0.016c5.65,0.145,9.281,2.686,10.617,3.814L75.66,86.473
		c0.033,0.04,0.068,0.076,0.107,0.115l2.695,2.694c1.125,1.125,2.619,1.745,4.209,1.745c1.592,0,3.086-0.62,4.213-1.745l2.693-2.694
		c1.125-1.124,1.744-2.62,1.744-4.212C91.322,80.785,90.703,79.29,89.578,78.164z M24.366,39.552c0-0.701,0.05-1.403,0.148-2.096
		l3.055,3.051c0.039,0.047,0.078,0.094,0.123,0.136l3.166,3.165c1.283,1.284,2.989,1.991,4.804,1.991
		c1.815,0,3.522-0.707,4.805-1.991l3.167-3.165c2.649-2.649,2.649-6.96,0-9.608l-3.167-3.166c-0.152-0.154-0.313-0.298-0.477-0.431
		l-2.652-2.654c0.638-0.083,1.28-0.125,1.921-0.125c8.214,0,14.895,6.683,14.895,14.894c0,0.057,0.007,0.152,0.017,0.26
		c-0.341,8.08-6.902,14.56-14.997,14.704c-0.006,0-0.011-0.001-0.017-0.001c-1.064-0.022-2.056-0.15-2.998-0.395
		C29.325,52.674,24.366,46.548,24.366,39.552z M87.953,84.964l-2.693,2.695c-0.691,0.689-1.611,1.071-2.588,1.071
		s-1.895-0.382-2.586-1.071L51.404,58.968l-0.067-0.063c-1.151-0.979-3.145-2.374-5.972-3.328c4.619-1.84,8.273-5.584,10.015-10.267
		c0.7,1.742,1.717,3.389,3.15,5.087l26.359,26.367l0.092,0.081c0.098,0.078,0.191,0.16,0.279,0.252l2.693,2.693
		C89.381,81.217,89.381,83.538,87.953,84.964z"/>
	<path fill="#FFFFFF" d="M81.836,79.004c-1.564,0-2.838,1.272-2.838,2.837c0,1.567,1.273,2.84,2.838,2.84
		c1.568,0,2.84-1.272,2.84-2.84C84.676,80.276,83.404,79.004,81.836,79.004z M81.836,82.383c-0.299,0-0.543-0.241-0.543-0.542
		c0-0.299,0.244-0.539,0.543-0.539s0.543,0.24,0.543,0.539C82.379,82.142,82.135,82.383,81.836,82.383z"/>
</g>
</svg>
