<svg version="1.1" id="Layer_1" xmlns="http://www.w3.org/2000/svg" xmlns:xlink="http://www.w3.org/1999/xlink" x="0px" y="0px"
	 width="113.39px" height="113.39px" viewBox="0 0 113.39 113.39" enable-background="new 0 0 113.39 113.39" xml:space="preserve">
<g>
	<g>
		<path fill="#FFFFFF" d="M50.942,47h-2.513c0-23.081,26.686-32.308,26.95-32.392l0.74,1.957C75.87,16.641,50.942,23.919,50.942,47z
			"/>
	</g>
	<path fill="#FFFFFF" d="M76.781,38.653c-10.492,0-18.606-10.215-18.946-10.646l-0.844-1.081l1.215-0.636
		c0.192-0.101,4.797-2.484,11.281-2.484c7.132,0,13.55,2.804,19.087,8.333l0.855,0.857l-0.906,0.808
		C84.9,37.021,80.949,38.653,76.781,38.653z M60.619,27.725c2.367,2.572,8.742,8.641,16.162,8.641c3.24,0,6.356-1.169,9.275-3.476
		c-4.875-4.514-10.446-6.799-16.569-6.799C65.534,26.091,62.33,27.068,60.619,27.725z"/>
	<g>
		<path fill="#FFFFFF" d="M49.547,85.148c-0.535,0.038-1.072,0.064-1.617,0.064c-12.482,0-22.638-10.158-22.638-22.643
			c0-12.486,10.156-22.642,22.638-22.642c11.819,0,21.542,9.101,22.548,20.663c0.127-0.003,0.255-0.02,0.381-0.02
			c0.653,0,1.291,0.047,1.92,0.117C71.813,47.82,61.039,37.644,47.93,37.644c-13.745,0-24.922,11.181-24.922,24.926
			c0,13.746,11.178,24.926,24.922,24.926c0.782,0,1.554-0.041,2.318-0.111C49.953,86.667,49.721,85.92,49.547,85.148z"/>
	</g>
	<path fill="#FFFFFF" d="M82.953,65.285c-0.088-0.101-0.189-0.186-0.279-0.283c-0.063-0.095-0.109-0.194-0.178-0.287l-0.062,0.045
		c-2.735-2.777-6.562-4.313-10.891-4.313c-5.083,0-10.41,2.134-14.623,5.856c-4.005,3.538-6.669,8.133-7.493,12.939
		c-0.839,4.899,0.317,9.436,3.265,12.767c2.934,3.317,7.507,5.222,12.539,5.222c5.305,0,10.362-2.046,14.249-5.765
		C90.107,81.292,88.238,71.272,82.953,65.285z M77.849,89.764c-3.446,3.295-7.925,5.109-12.617,5.109
		c-4.359,0-8.288-1.614-10.771-4.425c-2.464-2.79-3.425-6.624-2.708-10.808c0.732-4.276,3.122-8.389,6.729-11.569
		c3.783-3.349,8.545-5.265,13.062-5.265c3.717,0,6.976,1.305,9.267,3.661c2.439,4.006-1.829,11.061-7.271,15.823
		c-3.738,3.273-8.96,4.845-13.662,4.091l-0.373,2.329c0.893,0.146,1.8,0.213,2.716,0.213c4.588,0,9.325-1.756,12.87-4.856
		c4.249-3.721,7.887-8.716,8.655-13.224C86.272,76.752,84.221,83.661,77.849,89.764z"/>
	<path fill="#FFFFFF" d="M49.478,51.385c-4.437,0-6.289-2.892-6.65-4.464l2.227-0.522c0.071,0.291,0.883,2.805,4.705,2.697
		c3.397-0.116,4.584-1.944,4.632-2.021l1.961,1.173c-0.07,0.12-1.799,2.969-6.513,3.134C49.715,51.385,49.595,51.385,49.478,51.385z
		"/>
</g>
</svg>
