<svg version="1.1" id="Layer_1" xmlns="http://www.w3.org/2000/svg" xmlns:xlink="http://www.w3.org/1999/xlink" x="0px" y="0px"
	 width="113.39px" height="113.39px" viewBox="0 0 113.39 113.39" enable-background="new 0 0 113.39 113.39" xml:space="preserve">
<g>
	<g>
		<g>
			<path fill="#FFFFFF" d="M59.854,75.578c-11.396,0-20.325-4.5-20.325-10.241c0-5.745,8.929-10.243,20.325-10.243
				c11.4,0,20.328,4.498,20.328,10.243C80.182,71.078,71.254,75.578,59.854,75.578z M59.854,57.377c-10.79,0-18.04,4.117-18.04,7.96
				s7.25,7.957,18.04,7.957c10.793,0,18.045-4.114,18.045-7.957S70.646,57.377,59.854,57.377z"/>
		</g>
		<g>
			<path fill="#FFFFFF" d="M60.801,69.475c-0.535,0-1.018-0.38-1.121-0.928c-0.16-0.839-3.881-20.796,1.188-38.449
				c2.906-10.092,8.119-17.368,15.502-21.628c0.543-0.314,1.234-0.135,1.555,0.401c2.145,3.572,2.273,8.339,0.371,13.787
				c-2.652,7.592-9.039,15.355-14.244,17.305c-0.592,0.22-1.25-0.075-1.475-0.668c-0.223-0.59,0.076-1.251,0.67-1.473
				c4.074-1.527,10.227-8.286,12.889-15.919c1.063-3.041,1.918-7.269,0.357-10.832C70.176,15.1,65.66,21.708,63.063,30.732
				c-4.918,17.112-1.178,37.185-1.137,37.386c0.117,0.62-0.291,1.22-0.912,1.336C60.943,69.468,60.869,69.475,60.801,69.475z"/>
		</g>
		<g>
			<path fill="#FFFFFF" d="M55.376,28.396L55.376,28.396c-6.991-0.002-21.062-7.628-22.164-19.584
				c-0.054-0.592,0.357-1.126,0.941-1.229c8.853-1.551,15.653,0.002,20.072,4.568c5.476,5.656,5.28,13.82,5.267,14.165
				c-0.008,0.266-0.106,0.52-0.285,0.717C58.412,27.938,57.126,28.396,55.376,28.396z M35.628,9.657
				c1.665,9.722,13.549,16.451,19.748,16.454l0,0c0.786,0,1.425-0.13,1.826-0.357c-0.054-1.753-0.54-7.812-4.635-12.026
				C48.876,9.926,43.155,8.546,35.628,9.657z"/>
		</g>
		<g>
			<path fill="#FFFFFF" d="M59.926,106.388c-8.099,0-13.919-4.393-14.673-8.46l-5.559-30.524c-0.057-0.336,0.033-0.678,0.251-0.937
				c0.214-0.26,0.536-0.41,0.875-0.41h0.254c0.455,0,0.868,0.268,1.05,0.682c1.637,3.737,9.261,6.556,17.729,6.556
				c8.473,0,16.098-2.818,17.736-6.556c0.182-0.414,0.594-0.682,1.043-0.682h0.26c0.34,0,0.664,0.15,0.875,0.41
				c0.219,0.259,0.307,0.601,0.25,0.937c0,0-5.572,30.711-5.611,30.946C73.523,103.528,68.379,106.388,59.926,106.388z
				 M42.649,70.876l4.853,26.639c0.508,2.761,5.112,6.587,12.424,6.587c4.178,0,11.32-0.798,12.227-6.146
				c0.01-0.052,3.406-18.787,4.91-27.083c-3.607,2.878-9.996,4.705-17.209,4.705C52.647,75.578,46.261,73.751,42.649,70.876z"/>
		</g>
	</g>
</g>
</svg>
