<?xml version="1.0" encoding="UTF-8" standalone="no"?>
<svg
   xmlns:dc="http://purl.org/dc/elements/1.1/"
   xmlns:cc="http://creativecommons.org/ns#"
   xmlns:rdf="http://www.w3.org/1999/02/22-rdf-syntax-ns#"
   xmlns:svg="http://www.w3.org/2000/svg"
   xmlns="http://www.w3.org/2000/svg"
   xmlns:sodipodi="http://sodipodi.sourceforge.net/DTD/sodipodi-0.dtd"
   xmlns:inkscape="http://www.inkscape.org/namespaces/inkscape"
   width="146.57248mm"
   height="23.8125mm"
   viewBox="0 0 146.57248 23.8125"
   version="1.1"
   id="svg8"
   inkscape:version="0.92.2 (5c3e80d, 2017-08-06)"
   sodipodi:docname="logo.svg">
  <metadata
     id="metadata20">
    <rdf:RDF>
      <cc:Work
         rdf:about="">
        <dc:format>image/svg+xml</dc:format>
        <dc:type
           rdf:resource="http://purl.org/dc/dcmitype/StillImage" />
      </cc:Work>
    </rdf:RDF>
  </metadata>
  <defs
     id="defs2" />
  <sodipodi:namedview
     id="base"
     pagecolor="#ffffff"
     bordercolor="#666666"
     borderopacity="1.0"
     inkscape:pageopacity="0.0"
     inkscape:pageshadow="2"
     inkscape:zoom="0.98994949"
     inkscape:cx="415.07415"
     inkscape:cy="16.462875"
     inkscape:document-units="mm"
     inkscape:current-layer="flowRoot3734"
     showgrid="true"
     showguides="false"
     inkscape:window-width="1920"
     inkscape:window-height="1027"
     inkscape:window-x="-8"
     inkscape:window-y="-8"
     inkscape:window-maximized="1">
    <inkscape:grid
       type="xygrid"
       id="grid3850"
       originx="-29.257292"
       originy="-160.21042" />
  </sodipodi:namedview>
  <g
     inkscape:label="Layer 1"
     inkscape:groupmode="layer"
     id="layer1"
     transform="translate(-29.257292,-112.97708)">
    <g
       id="g3701"
       transform="matrix(0.26458333,0,0,0.26458333,32.446304,105.77396)" />
    <path
       inkscape:connector-curvature="0"
       d="m 52.540625,113.50625 v 22.75417 H 29.786458 v -22.75417 h 22.754167 m 0.529166,-0.52916 H 29.257292 v 23.8125 h 23.812499 z"
       id="path3699"
       style="stroke-width:0.26458332" />
    <path
       id="path3703"
       d="m 44.126875,118.87729 -0.105834,-0.34395 h -0.820208 l -0.07938,-0.34396 h -0.79375 l 0.05292,0.34396 h -2.434167 l 0.05292,-0.34396 h -0.79375 l -0.07937,0.34396 h -0.820208 l -0.105834,0.37041 h 0.846667 l -0.07937,0.39688 h -0.873125 l -0.132292,0.42333 h 0.926042 l -0.105833,0.42333 h -0.9525 l -0.15875,0.50271 h 1.005416 l -0.105833,0.52917 H 37.53875 l -0.185208,0.58208 h 1.084791 l -0.132291,0.66146 h -1.137709 l -0.211666,0.71438 h 1.217083 l -0.15875,0.79375 h -1.27 l -0.264583,0.89958 h 1.349375 l -0.211667,1.00542 h -1.42875 L 35.818958,127 h 1.534584 l -0.264584,1.29646 h -1.640416 l -0.449792,1.50813 h 1.772708 l -0.370416,1.7727 h 1.905 l 0.211666,-1.7727 h 5.265208 l 0.211667,1.7727 H 45.9525 l -0.370417,-1.7727 h 1.772708 L 46.905,128.29646 H 45.264583 L 45,127 h 1.534583 l -0.343958,-1.13771 h -1.42875 l -0.211667,-1.00541 h 1.349375 L 45.635,123.95729 h -1.296459 l -0.15875,-0.79375 h 1.190625 l -0.211666,-0.71437 h -1.137709 l -0.132291,-0.66146 h 1.084791 l -0.15875,-0.60854 H 43.782916 L 43.677083,120.65 h 0.978958 l -0.15875,-0.50271 h -0.9525 l -0.105833,-0.44979 h 0.899583 l -0.132291,-0.42333 h -0.873125 l -0.05292,-0.39688 z m -4.233333,0 h 2.513541 l 0.05292,0.39688 h -2.619375 z m -0.105834,0.82021 h 2.725208 l 0.05292,0.44979 h -2.831041 z m -0.105833,0.9525 h 2.963333 l 0.07938,0.52917 H 39.6025 Z m 3.915833,7.64646 H 38.702917 L 38.861667,127 H 43.4125 Z m -0.3175,-2.43417 h -4.259791 l 0.132291,-1.00541 h 4.021667 z m -0.238125,-1.905 h -3.783541 l 0.105833,-0.79375 h 3.598333 z m -0.185208,-1.53458 H 39.44375 l 0.07937,-0.66146 h 3.25438 z"
       inkscape:connector-curvature="0"
       style="stroke-width:0.26458332" />
    <path
       inkscape:connector-curvature="0"
       id="path71"
       style="font-style:normal;font-variant:normal;font-weight:normal;font-stretch:normal;font-size:64px;line-height:1.25;font-family:Calibri;-inkscape-font-specification:Calibri;letter-spacing:0px;word-spacing:0px;fill:#000000;fill-opacity:1;stroke:none;stroke-width:0.26458332"
       d="m 67.061221,125.87145 q 0,0.0744 -0.03307,0.12402 -0.03307,0.0496 -0.115756,0.0827 -0.07441,0.0331 -0.214974,0.0496 -0.14056,0.0165 -0.347265,0.0165 -0.239779,0 -0.388607,-0.0248 -0.14056,-0.0165 -0.23151,-0.0579 -0.08268,-0.0413 -0.132292,-0.0992 -0.04134,-0.0661 -0.06615,-0.15709 l -0.983919,-2.61276 q -0.198438,-0.52917 -0.438216,-0.90124 -0.239779,-0.37207 -0.553972,-0.61185 -0.305924,-0.24805 -0.702799,-0.3638 -0.396875,-0.11576 -0.892969,-0.11576 H 61.36441 v 4.67982 q 0,0.0662 -0.03307,0.11576 -0.03307,0.0496 -0.115756,0.0827 -0.08268,0.0248 -0.223242,0.0413 -0.132291,0.0248 -0.338997,0.0248 -0.198438,0 -0.338997,-0.0248 -0.14056,-0.0165 -0.223243,-0.0413 -0.08268,-0.0331 -0.115755,-0.0827 -0.03307,-0.0496 -0.03307,-0.11576 v -10.27741 q 0,-0.0579 0.03307,-0.10748 0.03307,-0.0496 0.115755,-0.0744 0.08268,-0.0331 0.223243,-0.0496 0.140559,-0.0248 0.338997,-0.0248 0.206706,0 0.338997,0.0248 0.14056,0.0165 0.223242,0.0496 0.08268,0.0248 0.115756,0.0744 0.03307,0.0496 0.03307,0.10748 v 4.3739 h 0.595312 q 0.496094,0 0.868164,-0.11576 0.37207,-0.12402 0.65319,-0.3638 0.289388,-0.23978 0.504362,-0.60358 0.223242,-0.37207 0.396875,-0.87643 l 0.810287,-2.33165 q 0.02479,-0.0827 0.06615,-0.14882 0.04134,-0.0662 0.124024,-0.10749 0.08268,-0.0413 0.223242,-0.0579 0.148828,-0.0248 0.380339,-0.0248 0.214974,0 0.347265,0.0165 0.132292,0.0165 0.206706,0.0496 0.08268,0.0331 0.107487,0.0827 0.02479,0.0496 0.02479,0.11575 0,0.0909 -0.03307,0.20671 -0.02479,0.10749 -0.07442,0.25631 l -0.851627,2.22416 q -0.181901,0.50436 -0.380339,0.86816 -0.190169,0.3638 -0.421679,0.62839 -0.231511,0.25631 -0.504362,0.42995 -0.272852,0.16536 -0.611849,0.26458 v 0.0165 q 0.388606,0.14056 0.686263,0.33072 0.305924,0.18191 0.562239,0.45476 0.256315,0.27285 0.471289,0.66146 0.214974,0.38033 0.42168,0.91777 l 1.008724,2.54661 q 0.08268,0.21498 0.09922,0.30593 0.01654,0.0827 0.01654,0.14883 z" />
    <path
       inkscape:connector-curvature="0"
       id="path73"
       style="font-style:normal;font-variant:normal;font-weight:normal;font-stretch:normal;font-size:64px;line-height:1.25;font-family:Calibri;-inkscape-font-specification:Calibri;letter-spacing:0px;word-spacing:0px;fill:#000000;fill-opacity:1;stroke:none;stroke-width:0.26458332"
       d="m 73.436026,123.11813 q -0.388607,0.95911 -0.719336,1.57096 -0.330729,0.60358 -0.677995,0.94258 -0.347265,0.339 -0.752409,0.46302 -0.405143,0.12403 -0.934309,0.12403 -0.181901,0 -0.372071,-0.0248 -0.181901,-0.0248 -0.347265,-0.0744 -0.165365,-0.0413 -0.297657,-0.0992 -0.124023,-0.0579 -0.181901,-0.0992 -0.05788,-0.0496 -0.09095,-0.0992 -0.02479,-0.0579 -0.04961,-0.14056 -0.01654,-0.0827 -0.02479,-0.2067 -0.0083,-0.12403 -0.0083,-0.29766 0,-0.31419 0.05788,-0.45475 0.06614,-0.14056 0.190169,-0.14056 0.06615,0 0.148828,0.0496 0.09095,0.0496 0.214974,0.11575 0.124023,0.0662 0.297656,0.11576 0.181901,0.0496 0.42168,0.0496 0.206706,0 0.380338,-0.0413 0.181901,-0.0496 0.338998,-0.19844 0.165364,-0.14883 0.338997,-0.41341 0.173633,-0.27285 0.380339,-0.73587 l -3.811654,-7.63985 q -0.07441,-0.16536 -0.09095,-0.27285 -0.0083,-0.10749 0.05788,-0.16536 0.07441,-0.0579 0.231511,-0.0744 0.157096,-0.0248 0.413411,-0.0248 0.239779,0 0.380339,0.0165 0.148828,0.0165 0.239778,0.0579 0.09095,0.0331 0.14056,0.0992 0.05788,0.0579 0.09922,0.1571 l 1.909961,3.9026 q 0.322461,0.65319 0.603581,1.26504 0.289388,0.60358 0.562239,1.20716 h 0.02479 q 0.223242,-0.62838 0.454752,-1.2485 0.239779,-0.62838 0.537435,-1.37252 l 1.49655,-3.81993 q 0.02479,-0.0744 0.06615,-0.12402 0.04961,-0.0496 0.132292,-0.0827 0.09095,-0.0331 0.239779,-0.0413 0.157096,-0.0165 0.396875,-0.0165 0.248047,0 0.396875,0.0248 0.148828,0.0248 0.214974,0.0744 0.06615,0.0496 0.06615,0.13229 0,0.0827 -0.04961,0.19844 z" />
    <path
       inkscape:connector-curvature="0"
       id="path75"
       style="font-style:normal;font-variant:normal;font-weight:normal;font-stretch:normal;font-size:64px;line-height:1.25;font-family:Calibri;-inkscape-font-specification:Calibri;letter-spacing:0px;word-spacing:0px;fill:#000000;fill-opacity:1;stroke:none;stroke-width:0.26458332"
       d="m 85.747419,125.88799 q 0,0.0661 -0.03307,0.11575 -0.03307,0.0413 -0.115755,0.0744 -0.08268,0.0331 -0.223242,0.0496 -0.132292,0.0165 -0.338998,0.0165 -0.198437,0 -0.338997,-0.0165 -0.14056,-0.0165 -0.223242,-0.0496 -0.07441,-0.0331 -0.115755,-0.0744 -0.03307,-0.0496 -0.03307,-0.11575 v -9.26042 h -4.83692 v 9.26042 q 0,0.0661 -0.04134,0.11575 -0.03307,0.0413 -0.115756,0.0744 -0.07441,0.0331 -0.214974,0.0496 -0.132291,0.0165 -0.338997,0.0165 -0.206706,0 -0.347266,-0.0165 -0.132291,-0.0165 -0.214974,-0.0496 -0.08268,-0.0331 -0.115755,-0.0744 -0.03307,-0.0496 -0.03307,-0.11575 v -9.91361 q 0,-0.28939 0.14056,-0.42995 0.148828,-0.14883 0.372071,-0.14883 h 6.67246 q 0.231511,0 0.363802,0.14883 0.132292,0.14056 0.132292,0.42995 z" />
    <path
       inkscape:connector-curvature="0"
       id="path77"
       style="font-style:normal;font-variant:normal;font-weight:normal;font-stretch:normal;font-size:64px;line-height:1.25;font-family:Calibri;-inkscape-font-specification:Calibri;letter-spacing:0px;word-spacing:0px;fill:#000000;fill-opacity:1;stroke:none;stroke-width:0.26458332"
       d="m 96.603604,125.88799 q 0,0.0661 -0.03307,0.11575 -0.03307,0.0413 -0.115755,0.0744 -0.08268,0.0331 -0.223242,0.0496 -0.132292,0.0165 -0.338998,0.0165 -0.198437,0 -0.338997,-0.0165 -0.14056,-0.0165 -0.223242,-0.0496 -0.07441,-0.0331 -0.107487,-0.0744 -0.03307,-0.0496 -0.03307,-0.11575 v -7.01973 q 0,-0.25632 0.0083,-0.52917 0.0083,-0.28112 0.02479,-0.50436 h -0.01654 q -0.06615,0.11576 -0.148828,0.24805 -0.07441,0.13229 -0.165365,0.28112 -0.09095,0.14056 -0.181901,0.28939 -0.09095,0.14056 -0.181901,0.28112 l -4.630208,6.96184 q -0.04961,0.0662 -0.09922,0.11576 -0.04961,0.0496 -0.132292,0.0827 -0.07441,0.0248 -0.181901,0.0331 -0.107487,0.0165 -0.272851,0.0165 -0.19017,0 -0.314193,-0.0165 -0.115755,-0.0165 -0.190169,-0.0496 -0.06615,-0.0413 -0.09922,-0.091 -0.02479,-0.0496 -0.02479,-0.12402 v -10.26087 q 0,-0.0579 0.03307,-0.10749 0.04134,-0.0496 0.124024,-0.0827 0.09095,-0.0331 0.223242,-0.0496 0.14056,-0.0165 0.330729,-0.0165 0.206706,0 0.338998,0.0165 0.140559,0.0165 0.223242,0.0496 0.08268,0.0331 0.115755,0.0827 0.03307,0.0496 0.03307,0.10749 v 7.06107 q 0,0.22324 -0.0083,0.47955 0,0.25632 -0.02479,0.4961 h 0.01654 q 0.132292,-0.20671 0.305924,-0.4961 0.181901,-0.29765 0.380339,-0.58704 l 4.62194,-6.97012 q 0.04134,-0.0579 0.09095,-0.0992 0.04961,-0.0496 0.124024,-0.0744 0.08268,-0.0331 0.190169,-0.0496 0.107487,-0.0165 0.272852,-0.0165 0.190169,0 0.305924,0.0165 0.124024,0.0165 0.190169,0.0579 0.07441,0.0331 0.09922,0.0827 0.03307,0.0413 0.03307,0.11576 z" />
    <path
       inkscape:connector-curvature="0"
       id="path79"
       style="font-style:normal;font-variant:normal;font-weight:normal;font-stretch:normal;font-size:64px;line-height:1.25;font-family:Calibri;-inkscape-font-specification:Calibri;letter-spacing:0px;word-spacing:0px;fill:#000000;fill-opacity:1;stroke:none;stroke-width:0.26458332"
       d="m 106.16994,116.00745 q 0,0.1571 -0.0165,0.27285 -0.0165,0.11576 -0.0579,0.19017 -0.0331,0.0661 -0.0909,0.0992 -0.0496,0.0331 -0.11575,0.0331 h -3.00964 v 9.27696 q 0,0.0661 -0.0331,0.11575 -0.0331,0.0496 -0.11576,0.0827 -0.0827,0.0248 -0.22324,0.0413 -0.13229,0.0248 -0.339,0.0248 -0.19844,0 -0.339,-0.0248 -0.14056,-0.0165 -0.22324,-0.0413 -0.0827,-0.0331 -0.11575,-0.0827 -0.0331,-0.0496 -0.0331,-0.11575 v -9.27696 h -3.009631 q -0.06615,0 -0.124023,-0.0331 -0.04961,-0.0331 -0.08268,-0.0992 -0.03307,-0.0744 -0.05788,-0.19017 -0.01654,-0.11575 -0.01654,-0.27285 0,-0.15709 0.01654,-0.27285 0.02479,-0.12402 0.05788,-0.19844 0.03307,-0.0744 0.08268,-0.10748 0.05788,-0.0331 0.124023,-0.0331 h 7.441411 q 0.0661,0 0.11575,0.0331 0.0579,0.0331 0.0909,0.10748 0.0413,0.0744 0.0579,0.19844 0.0165,0.11576 0.0165,0.27285 z" />
    <path
       inkscape:connector-curvature="0"
       id="path81"
       style="font-style:normal;font-variant:normal;font-weight:normal;font-stretch:normal;font-size:64px;line-height:1.25;font-family:Calibri;-inkscape-font-specification:Calibri;letter-spacing:0px;word-spacing:0px;fill:#000000;fill-opacity:1;stroke:none;stroke-width:0.26458332"
       d="m 114.86812,122.75433 q 0,0.65319 -0.2067,1.24023 -0.19844,0.58705 -0.66146,1.05834 -0.45475,0.46302 -1.21543,0.7524 -0.76068,0.28939 -2.1332,0.28939 h -2.36472 q -0.0992,0 -0.19844,-0.0248 -0.0992,-0.0331 -0.17363,-0.0992 -0.0744,-0.0744 -0.13229,-0.1819 -0.0496,-0.11575 -0.0496,-0.27285 v -9.91361 q 0,-0.0579 0.0331,-0.10748 0.0413,-0.0496 0.12403,-0.0827 0.0909,-0.0331 0.22324,-0.0496 0.14056,-0.0165 0.33073,-0.0165 0.2067,0 0.339,0.0165 0.14056,0.0165 0.22324,0.0496 0.0827,0.0331 0.11575,0.0827 0.0331,0.0496 0.0331,0.10748 v 4.01009 h 1.6123 q 1.17409,0 1.86862,0.19844 0.7028,0.19844 1.19063,0.59531 0.49609,0.38861 0.76894,0.98392 0.27285,0.58705 0.27285,1.36426 z m -1.48001,0.13229 q 0,-0.50436 -0.14883,-0.8847 -0.14056,-0.38861 -0.44648,-0.65319 -0.29766,-0.27285 -0.76068,-0.41341 -0.46302,-0.14883 -1.38906,-0.14883 h -1.48828 v 4.12585 h 1.5875 q 0.98391,0 1.46347,-0.19844 0.47956,-0.19844 0.72761,-0.4961 0.25631,-0.30592 0.35553,-0.66145 0.0992,-0.35554 0.0992,-0.66973 z" />
    <path
       inkscape:connector-curvature="0"
       id="path83"
       style="font-style:normal;font-variant:normal;font-weight:normal;font-stretch:normal;font-size:64px;line-height:1.25;font-family:Calibri;-inkscape-font-specification:Calibri;letter-spacing:0px;word-spacing:0px;fill:#000000;fill-opacity:1;stroke:none;stroke-width:0.26458332"
       d="m 127.13817,118.52926 q 0,0.80202 -0.26458,1.44694 -0.26458,0.64492 -0.76068,1.09968 -0.48782,0.45475 -1.20716,0.7028 -0.71107,0.24804 -1.70325,0.24804 h -1.21543 v 3.853 q 0,0.0661 -0.0413,0.11575 -0.0331,0.0496 -0.11576,0.0827 -0.0744,0.0248 -0.21497,0.0413 -0.13229,0.0248 -0.339,0.0248 -0.20671,0 -0.34727,-0.0248 -0.13229,-0.0165 -0.21497,-0.0413 -0.0827,-0.0331 -0.11576,-0.0827 -0.0331,-0.0496 -0.0331,-0.11575 v -9.87227 q 0,-0.33073 0.17363,-0.47129 0.17364,-0.14056 0.38861,-0.14056 h 2.2903 q 0.34727,0 0.66146,0.0331 0.32246,0.0248 0.75241,0.12402 0.43821,0.0909 0.8847,0.35553 0.45475,0.25632 0.76894,0.63666 0.3142,0.38034 0.47956,0.8847 0.17363,0.49609 0.17363,1.09967 z m -1.49655,0.11576 q 0,-0.65319 -0.24804,-1.09141 -0.23978,-0.43821 -0.60358,-0.65319 -0.35554,-0.21497 -0.74414,-0.27285 -0.38034,-0.0579 -0.74414,-0.0579 h -1.31465 v 4.29121 h 1.28157 q 0.64492,0 1.0666,-0.16536 0.42995,-0.16537 0.71934,-0.45475 0.28939,-0.29766 0.43822,-0.7028 0.14882,-0.41342 0.14882,-0.89297 z" />
    <path
       inkscape:connector-curvature="0"
       id="path85"
       style="font-style:normal;font-variant:normal;font-weight:normal;font-stretch:normal;font-size:64px;line-height:1.25;font-family:Calibri;-inkscape-font-specification:Calibri;letter-spacing:0px;word-spacing:0px;fill:#000000;fill-opacity:1;stroke:none;stroke-width:0.26458332"
       d="m 135.28238,125.50765 q 0,0.14883 -0.0165,0.26458 -0.0165,0.10749 -0.0579,0.1819 -0.0413,0.0744 -0.0992,0.10749 -0.0496,0.0331 -0.11576,0.0331 h -5.13457 q -0.19017,0 -0.3638,-0.12402 -0.16537,-0.13229 -0.16537,-0.45475 v -9.54154 q 0,-0.32246 0.16537,-0.44648 0.17363,-0.1323 0.3638,-0.1323 h 5.07669 q 0.0661,0 0.11576,0.0331 0.0579,0.0331 0.0909,0.10748 0.0331,0.0744 0.0496,0.19017 0.0248,0.10749 0.0248,0.27285 0,0.14883 -0.0248,0.26459 -0.0165,0.10748 -0.0496,0.1819 -0.0331,0.0661 -0.0909,0.0992 -0.0496,0.0331 -0.11576,0.0331 h -4.18372 v 3.3569 h 3.58841 q 0.0661,0 0.11576,0.0413 0.0579,0.0331 0.091,0.0992 0.0413,0.0662 0.0579,0.1819 0.0165,0.11576 0.0165,0.27285 0,0.14883 -0.0165,0.25632 -0.0165,0.10749 -0.0579,0.17363 -0.0331,0.0661 -0.091,0.0992 -0.0496,0.0248 -0.11576,0.0248 h -3.58841 v 3.82819 h 4.2416 q 0.0662,0 0.11576,0.0331 0.0579,0.0331 0.0992,0.10749 0.0413,0.0661 0.0579,0.1819 0.0165,0.10749 0.0165,0.27285 z" />
    <path
       inkscape:connector-curvature="0"
       id="path87"
       style="font-style:normal;font-variant:normal;font-weight:normal;font-stretch:normal;font-size:64px;line-height:1.25;font-family:Calibri;-inkscape-font-specification:Calibri;letter-spacing:0px;word-spacing:0px;fill:#000000;fill-opacity:1;stroke:none;stroke-width:0.26458332"
       d="m 144.89833,125.88799 q 0,0.0661 -0.0331,0.11575 -0.0331,0.0413 -0.11576,0.0744 -0.0827,0.0331 -0.22324,0.0496 -0.13229,0.0165 -0.339,0.0165 -0.2067,0 -0.34726,-0.0165 -0.1323,-0.0165 -0.21498,-0.0496 -0.0827,-0.0331 -0.11575,-0.0744 -0.0331,-0.0496 -0.0331,-0.11575 v -9.26869 h -3.00963 q -0.22324,1.90996 -0.44649,3.36517 -0.22324,1.45521 -0.47128,2.53008 -0.24805,1.0666 -0.54571,1.77767 -0.29765,0.71107 -0.68626,1.14928 -0.38034,0.42995 -0.86816,0.61185 -0.47956,0.17363 -1.09968,0.17363 -0.0827,0 -0.14883,-0.0331 -0.0661,-0.0331 -0.11575,-0.10749 -0.0413,-0.0744 -0.0661,-0.19017 -0.0165,-0.11575 -0.0165,-0.28112 0,-0.2067 0.0165,-0.33899 0.0248,-0.13229 0.0579,-0.21498 0.0331,-0.0827 0.0827,-0.11575 0.0579,-0.0331 0.12403,-0.0331 0.30592,0 0.5705,-0.12403 0.27285,-0.12402 0.5209,-0.46302 0.24805,-0.34726 0.47129,-0.95911 0.23151,-0.62012 0.44648,-1.60404 0.21498,-0.99219 0.42168,-2.39779 0.20671,-1.4056 0.40515,-3.33209 0.0413,-0.34727 0.16536,-0.48783 0.12403,-0.14883 0.3638,-0.14883 h 4.75424 q 0.23151,0 0.3638,0.14883 0.13229,0.14056 0.13229,0.42995 z" />
    <path
       inkscape:connector-curvature="0"
       id="path89"
       style="font-style:normal;font-variant:normal;font-weight:normal;font-stretch:normal;font-size:64px;line-height:1.25;font-family:Calibri;-inkscape-font-specification:Calibri;letter-spacing:0px;word-spacing:0px;fill:#000000;fill-opacity:1;stroke:none;stroke-width:0.26458332"
       d="m 154.88635,122.75433 q 0,0.65319 -0.20671,1.24023 -0.19843,0.58705 -0.66145,1.05834 -0.45476,0.46302 -1.21543,0.7524 -0.76068,0.28939 -2.13321,0.28939 h -2.36471 q -0.0992,0 -0.19844,-0.0248 -0.0992,-0.0331 -0.17363,-0.0992 -0.0744,-0.0744 -0.13229,-0.1819 -0.0496,-0.11575 -0.0496,-0.27285 v -9.91361 q 0,-0.0579 0.0331,-0.10748 0.0413,-0.0496 0.12403,-0.0827 0.0909,-0.0331 0.22324,-0.0496 0.14056,-0.0165 0.33073,-0.0165 0.2067,0 0.33899,0.0165 0.14056,0.0165 0.22325,0.0496 0.0827,0.0331 0.11575,0.0827 0.0331,0.0496 0.0331,0.10748 v 4.01009 h 1.61231 q 1.17409,0 1.86862,0.19844 0.7028,0.19844 1.19062,0.59531 0.4961,0.38861 0.76895,0.98392 0.27285,0.58705 0.27285,1.36426 z m -1.48001,0.13229 q 0,-0.50436 -0.14883,-0.8847 -0.14056,-0.38861 -0.44648,-0.65319 -0.29766,-0.27285 -0.76068,-0.41341 -0.46302,-0.14883 -1.38906,-0.14883 H 149.173 v 4.12585 h 1.5875 q 0.98392,0 1.46348,-0.19844 0.47956,-0.19844 0.7276,-0.4961 0.25632,-0.30592 0.35554,-0.66145 0.0992,-0.35554 0.0992,-0.66973 z" />
    <path
       inkscape:connector-curvature="0"
       id="path91"
       style="font-style:normal;font-variant:normal;font-weight:normal;font-stretch:normal;font-size:64px;line-height:1.25;font-family:Calibri;-inkscape-font-specification:Calibri;letter-spacing:0px;word-spacing:0px;fill:#000000;fill-opacity:1;stroke:none;stroke-width:0.26458332"
       d="m 163.89045,124.58161 q 0,0.13229 -0.008,0.23151 -0.008,0.0992 -0.0331,0.17363 -0.0165,0.0744 -0.0496,0.13229 -0.0331,0.0579 -0.11575,0.14056 -0.0827,0.0827 -0.34727,0.25632 -0.26458,0.16536 -0.66145,0.33073 -0.38861,0.15709 -0.90124,0.26458 -0.50436,0.11575 -1.10794,0.11575 -1.0418,0 -1.88516,-0.34726 -0.83509,-0.34727 -1.4304,-1.02526 -0.58705,-0.678 -0.90951,-1.67018 -0.31419,-1.00046 -0.31419,-2.29857 0,-1.33119 0.339,-2.37298 0.34726,-1.0418 0.96738,-1.76114 0.62012,-0.7276 1.48001,-1.10794 0.86817,-0.38034 1.91823,-0.38034 0.46302,0 0.90124,0.0909 0.43821,0.0827 0.81028,0.21498 0.37207,0.13229 0.66146,0.30592 0.28939,0.17363 0.39688,0.28939 0.11575,0.10749 0.14883,0.16536 0.0331,0.0579 0.0496,0.14056 0.0248,0.0744 0.0331,0.1819 0.0165,0.10749 0.0165,0.25632 0,0.16536 -0.0165,0.28112 -0.0165,0.11575 -0.0496,0.19844 -0.0331,0.0744 -0.0827,0.11575 -0.0413,0.0331 -0.10749,0.0331 -0.11576,0 -0.32246,-0.15709 -0.20671,-0.16537 -0.53744,-0.35554 -0.32246,-0.19843 -0.79375,-0.35553 -0.46302,-0.16536 -1.11621,-0.16536 -0.71107,0 -1.29811,0.28938 -0.57878,0.28112 -0.99219,0.8351 -0.41341,0.55397 -0.64492,1.35598 -0.22324,0.79375 -0.22324,1.81902 0,1.01699 0.21497,1.80247 0.22324,0.77721 0.62839,1.30638 0.41341,0.5209 1.00872,0.79375 0.59531,0.26458 1.34772,0.26458 0.63666,0 1.10795,-0.15709 0.47955,-0.1571 0.81028,-0.34727 0.339,-0.19844 0.55397,-0.35553 0.21498,-0.1571 0.339,-0.1571 0.0579,0 0.0992,0.0248 0.0413,0.0248 0.0661,0.0992 0.0248,0.0661 0.0331,0.19017 0.0165,0.12402 0.0165,0.31419 z" />
    <path
       inkscape:connector-curvature="0"
       id="path93"
       style="font-style:normal;font-variant:normal;font-weight:normal;font-stretch:normal;font-size:64px;line-height:1.25;font-family:Calibri;-inkscape-font-specification:Calibri;letter-spacing:0px;word-spacing:0px;fill:#000000;fill-opacity:1;stroke:none;stroke-width:0.26458332"
       d="m 175.82977,125.88799 q 0,0.0661 -0.0331,0.11575 -0.0331,0.0413 -0.11575,0.0744 -0.0827,0.0331 -0.22325,0.0496 -0.14056,0.0165 -0.33899,0.0165 -0.20671,0 -0.339,-0.0165 -0.13229,-0.0165 -0.22324,-0.0496 -0.0827,-0.0331 -0.11576,-0.0744 -0.0331,-0.0496 -0.0331,-0.11575 v -10.28568 q 0,-0.0579 0.0331,-0.10749 0.0413,-0.0496 0.12403,-0.0827 0.0909,-0.0331 0.22324,-0.0496 0.14056,-0.0165 0.33073,-0.0165 0.19843,0 0.33899,0.0165 0.14056,0.0165 0.22325,0.0496 0.0827,0.0331 0.11575,0.0827 0.0331,0.0496 0.0331,0.10749 z m -3.08404,-3.12539 q 0,0.66145 -0.21498,1.2485 -0.2067,0.57877 -0.66146,1.0418 -0.45475,0.46302 -1.21543,0.7524 -0.75241,0.28939 -2.09186,0.28939 h -2.23242 q -0.0992,0 -0.19844,-0.0248 -0.0992,-0.0331 -0.17363,-0.0992 -0.0744,-0.0744 -0.13229,-0.1819 -0.0496,-0.11575 -0.0496,-0.27285 v -9.91361 q 0,-0.0579 0.0331,-0.10748 0.0413,-0.0496 0.12402,-0.0827 0.091,-0.0331 0.22325,-0.0496 0.14056,-0.0165 0.33073,-0.0165 0.2067,0 0.33899,0.0165 0.14056,0.0165 0.22325,0.0496 0.0827,0.0331 0.11575,0.0827 0.0331,0.0496 0.0331,0.10748 v 4.04317 h 1.48002 q 1.14928,0 1.83554,0.19843 0.69453,0.19017 1.18236,0.58705 0.48783,0.38861 0.76895,0.97565 0.28112,0.58704 0.28112,1.35599 z m -1.47175,0.13229 q 0,-0.4961 -0.14883,-0.87643 -0.14883,-0.38034 -0.45475,-0.64493 -0.29766,-0.27285 -0.76068,-0.41341 -0.45475,-0.14883 -1.35599,-0.14883 h -1.35599 v 4.11758 h 1.45521 q 0.95912,0 1.43041,-0.19844 0.47955,-0.19843 0.7276,-0.49609 0.25631,-0.30592 0.35553,-0.66146 0.10749,-0.3638 0.10749,-0.67799 z" />
    <g
       aria-label="холдинг «Рельсовый завод «Опт-рельс»"
       transform="matrix(0.13723893,0,0,0.13723893,43.671442,118.00713)"
       style="font-style:normal;font-weight:normal;font-size:40px;line-height:1.25;font-family:sans-serif;letter-spacing:0px;word-spacing:0px;fill:#000000;fill-opacity:1;stroke:none"
       id="flowRoot3734">
      <g
         aria-label="холдинг «Рельсовый завод «Опт-рельс»"
         style="font-style:normal;font-weight:normal;font-size:50.03124237px;line-height:1.25;font-family:sans-serif;letter-spacing:0px;word-spacing:0px;fill:#000000;fill-opacity:1;stroke:none;stroke-width:3.12695265"
         id="text3844"
         transform="translate(0,7.7116116)">
        <path
           d="m 138.36456,109.49872 q 0.19543,0.34201 0.19543,0.5863 0,0.21987 -0.24429,0.36644 -0.21986,0.14658 -0.70845,0.19544 -0.46416,0.0733 -1.22146,0.0733 -0.73288,0 -1.17261,-0.0489 -0.4153,-0.0244 -0.68402,-0.0977 -0.2443,-0.0977 -0.39087,-0.21987 -0.12215,-0.14657 -0.21987,-0.31758 l -5.27673,-8.72126 -5.2523,8.72126 q -0.0977,0.17101 -0.24429,0.31758 -0.12215,0.12215 -0.39087,0.21987 -0.2443,0.0733 -0.6596,0.0977 -0.41529,0.0489 -1.09931,0.0489 -0.70846,0 -1.17261,-0.0733 -0.43973,-0.0489 -0.65959,-0.19544 -0.19544,-0.14657 -0.19544,-0.36644 0.0244,-0.24429 0.24429,-0.5863 l 6.84021,-10.724472 -6.47377,-10.333601 q -0.19543,-0.342011 -0.21986,-0.561875 0,-0.244293 0.21986,-0.390869 0.2443,-0.171005 0.70845,-0.219864 0.48859,-0.04886 1.27033,-0.04886 0.70845,0 1.12375,0.04886 0.43973,0.02443 0.68402,0.09772 0.24429,0.07329 0.36644,0.195434 0.12215,0.122147 0.21986,0.293152 l 5.00801,8.183821 5.0813,-8.183821 q 0.0977,-0.146576 0.21986,-0.268722 0.12215,-0.122147 0.31759,-0.195435 0.21986,-0.09772 0.5863,-0.122147 0.39087,-0.04886 1.05046,-0.04886 0.70845,0 1.14818,0.04886 0.46415,0.04886 0.68402,0.195435 0.21986,0.122147 0.19543,0.36644 -0.0244,0.244293 -0.24429,0.610733 l -6.42491,10.211454 z"
           style="font-style:normal;font-variant:normal;font-weight:normal;font-stretch:normal;font-family:Calibri;-inkscape-font-specification:Calibri;stroke-width:3.12695265"
           id="path3846"
           inkscape:connector-curvature="0" />
        <path
           d="m 163.0626,98.725389 q 0,2.687221 -0.70845,4.959151 -0.70845,2.2475 -2.12535,3.88426 -1.39247,1.63677 -3.51782,2.56508 -2.10092,0.90389 -4.88587,0.90389 -2.71165,0 -4.73928,-0.80617 -2.00321,-0.80617 -3.34682,-2.34522 -1.34361,-1.53904 -2.0032,-3.73768 -0.6596,-2.19864 -0.6596,-4.983583 0,-2.687225 0.68402,-4.934722 0.70845,-2.271927 2.10093,-3.908691 1.4169,-1.636764 3.51782,-2.540649 2.10092,-0.903885 4.91029,-0.903885 2.71165,0 4.71486,0.806168 2.02763,0.806167 3.37124,2.345214 1.34362,1.539047 2.00321,3.737686 0.68402,2.198638 0.68402,4.959151 z m -4.2507,0.268723 q 0,-1.78334 -0.34201,-3.371246 -0.31758,-1.587906 -1.07489,-2.784942 -0.75731,-1.197037 -2.05207,-1.881058 -1.29475,-0.70845 -3.22466,-0.70845 -1.78335,0 -3.0781,0.635162 -1.27032,0.635163 -2.10092,1.80777 -0.8306,1.148178 -1.2459,2.736084 -0.39086,1.587905 -0.39086,3.468963 0,1.807765 0.31758,3.395675 0.34201,1.58791 1.09932,2.78494 0.78173,1.17261 2.07649,1.88106 1.29475,0.68402 3.22467,0.68402 1.75891,0 3.05366,-0.63516 1.29476,-0.63516 2.12535,-1.78334 0.8306,-1.14818 1.22147,-2.73609 0.39087,-1.5879 0.39087,-3.493388 z"
           style="font-style:normal;font-variant:normal;font-weight:normal;font-stretch:normal;font-family:Calibri;-inkscape-font-specification:Calibri;stroke-width:3.12695265"
           id="path3848"
           inkscape:connector-curvature="0" />
        <path
           d="m 186.17273,109.96288 q 0,0.19543 -0.0977,0.34201 -0.0977,0.12214 -0.31758,0.21986 -0.21987,0.0977 -0.61074,0.14658 -0.39087,0.0489 -0.97717,0.0489 -0.61073,0 -1.0016,-0.0489 -0.39087,-0.0489 -0.63516,-0.14658 -0.21987,-0.0977 -0.31759,-0.21986 -0.0977,-0.14658 -0.0977,-0.34201 V 90.761432 H 176.059 q -0.39087,3.884261 -0.95275,6.913497 -0.53744,3.029231 -1.22146,5.276731 -0.68402,2.2475 -1.53905,3.78655 -0.85503,1.53904 -1.88106,2.49179 -1.0016,0.92831 -2.19864,1.34361 -1.1726,0.4153 -2.51622,0.4153 -0.21986,0 -0.39086,-0.0733 -0.14658,-0.0733 -0.2443,-0.26872 -0.0977,-0.19544 -0.14657,-0.53745 -0.0489,-0.36644 -0.0489,-0.92831 0,-0.58631 0.0244,-0.95275 0.0489,-0.36644 0.12214,-0.5863 0.0977,-0.21986 0.21987,-0.29315 0.14657,-0.0733 0.34201,-0.0733 0.80617,0 1.53904,-0.36644 0.73288,-0.39087 1.36805,-1.24589 0.63516,-0.87946 1.19703,-2.27193 0.56188,-1.4169 1.02603,-3.468964 0.46416,-2.052063 0.87946,-4.788146 0.4153,-2.760513 0.78174,-6.327194 0.0489,-0.732879 0.34201,-1.07489 0.31758,-0.366439 0.87945,-0.366439 h 11.28635 q 0.5863,0 0.90388,0.366439 0.34201,0.342011 0.34201,1.07489 z"
           style="font-style:normal;font-variant:normal;font-weight:normal;font-stretch:normal;font-family:Calibri;-inkscape-font-specification:Calibri;stroke-width:3.12695265"
           id="path3850"
           inkscape:connector-curvature="0" />
        <path
           d="m 193.86797,117.95126 q 0,0.17101 -0.0733,0.26872 -0.0733,0.12215 -0.29315,0.19544 -0.19544,0.0733 -0.51302,0.12215 -0.31758,0.0489 -0.78174,0.0489 -0.51301,0 -0.85502,-0.0489 -0.31759,-0.0489 -0.53745,-0.12215 -0.19543,-0.0733 -0.29315,-0.19544 -0.0733,-0.0977 -0.0733,-0.26872 v -9.79615 q 0,-0.61074 0.19544,-0.80617 0.19543,-0.19544 0.7573,-0.19544 h 1.56348 q 0.90389,-1.09932 1.68562,-2.51622 0.78174,-1.4169 1.44133,-3.54225 0.68402,-2.149777 1.2459,-5.154583 0.56187,-3.004806 1.02603,-7.182219 0.0489,-0.342011 0.12215,-0.610733 0.0977,-0.293152 0.24429,-0.439728 0.171,-0.171005 0.39087,-0.268722 0.21986,-0.09772 0.51301,-0.09772 h 12.21466 q 0.58631,0 0.90389,0.36644 0.34201,0.342011 0.34201,1.07489 V 107.1535 h 3.05366 q 0.51302,0 0.73288,0.19544 0.21987,0.19543 0.21987,0.80617 v 9.79615 q 0,0.17101 -0.0733,0.26872 -0.0733,0.12215 -0.29315,0.19544 -0.19544,0.0733 -0.53745,0.12215 -0.34201,0.0489 -0.80617,0.0489 -0.48858,0 -0.80616,-0.0489 -0.31758,-0.0489 -0.53745,-0.12215 -0.19543,-0.0733 -0.29315,-0.19544 -0.0733,-0.0977 -0.0733,-0.26872 v -7.37765 h -19.81217 z m 15.1706,-27.287545 h -6.96235 q -0.51302,3.981978 -1.07489,6.718062 -0.53745,2.736083 -1.17261,4.617143 -0.61073,1.88106 -1.29476,3.07809 -0.68402,1.17261 -1.4169,2.07649 h 11.92151 z"
           style="font-style:normal;font-variant:normal;font-weight:normal;font-stretch:normal;font-family:Calibri;-inkscape-font-specification:Calibri;stroke-width:3.12695265"
           id="path3852"
           inkscape:connector-curvature="0" />
        <path
           d="m 241.1387,109.9873 q 0,0.17101 -0.0977,0.31759 -0.0977,0.14657 -0.31758,0.24429 -0.21986,0.0733 -0.61073,0.12215 -0.39087,0.0489 -0.97718,0.0489 -0.5863,0 -0.97717,-0.0489 -0.39087,-0.0489 -0.63516,-0.12215 -0.24429,-0.0977 -0.34201,-0.24429 -0.0977,-0.14658 -0.0977,-0.31759 V 97.332918 q 0,-0.952743 0.0489,-1.929916 0.0489,-1.001602 0.12215,-1.954345 -0.56188,0.977172 -1.2459,1.929916 -0.65959,0.928314 -1.34361,1.856628 l -9.332,12.752099 q -0.171,0.19544 -0.31758,0.34202 -0.12215,0.14657 -0.34201,0.24429 -0.19544,0.0733 -0.51302,0.0977 -0.31758,0.0489 -0.78174,0.0489 -0.53744,0 -0.87945,-0.0489 -0.34201,-0.0489 -0.56187,-0.12215 -0.19544,-0.0977 -0.29316,-0.24429 -0.0733,-0.14658 -0.0733,-0.31759 V 87.95206 q 0,-0.171005 0.0733,-0.317581 0.0977,-0.146576 0.31758,-0.244293 0.2443,-0.09772 0.63517,-0.122147 0.39087,-0.04886 0.95274,-0.04886 1.17261,0 1.61234,0.195434 0.43972,0.171006 0.43972,0.537445 v 12.727672 q 0,0.95275 -0.0489,1.90549 -0.0488,0.92832 -0.12214,1.85663 0.56187,-0.92831 1.12375,-1.80777 0.5863,-0.90388 1.24589,-1.75891 l 9.45415,-12.923112 q 0.14657,-0.195434 0.29315,-0.34201 0.171,-0.146576 0.39087,-0.219864 0.24429,-0.09772 0.56187,-0.122147 0.31758,-0.04886 0.8306,-0.04886 0.51302,0 0.85503,0.04886 0.36644,0.02443 0.56187,0.122147 0.21986,0.09772 0.29315,0.244293 0.0977,0.146576 0.0977,0.342011 z"
           style="font-style:normal;font-variant:normal;font-weight:normal;font-stretch:normal;font-family:Calibri;-inkscape-font-specification:Calibri;stroke-width:3.12695265"
           id="path3854"
           inkscape:connector-curvature="0" />
        <path
           d="m 267.91324,109.96288 q 0,0.19543 -0.0977,0.34201 -0.0977,0.12214 -0.31758,0.21986 -0.21987,0.0977 -0.61074,0.14658 -0.39087,0.0489 -0.97717,0.0489 -0.61073,0 -1.0016,-0.0489 -0.39087,-0.0489 -0.61073,-0.14658 -0.21987,-0.0977 -0.31759,-0.21986 -0.0977,-0.14658 -0.0977,-0.34201 v -9.64958 h -11.21306 v 9.64958 q 0,0.19543 -0.0977,0.34201 -0.0977,0.12214 -0.31758,0.21986 -0.21986,0.0977 -0.61073,0.14658 -0.39087,0.0489 -1.0016,0.0489 -0.58631,0 -0.97718,-0.0489 -0.39086,-0.0489 -0.63516,-0.14658 -0.21986,-0.0977 -0.31758,-0.21986 -0.0733,-0.14658 -0.0733,-0.34201 V 87.97649 q 0,-0.195435 0.0733,-0.317581 0.0977,-0.146576 0.31758,-0.244294 0.2443,-0.122146 0.63516,-0.146576 0.39087,-0.04886 0.97718,-0.04886 0.61073,0 1.0016,0.04886 0.39087,0.02443 0.61073,0.146576 0.21987,0.09772 0.31758,0.244294 0.0977,0.122146 0.0977,0.317581 v 8.94113 h 11.21306 v -8.94113 q 0,-0.195435 0.0977,-0.317581 0.0977,-0.146576 0.31759,-0.244294 0.21986,-0.122146 0.61073,-0.146576 0.39087,-0.04886 1.0016,-0.04886 0.5863,0 0.97717,0.04886 0.39087,0.02443 0.61074,0.146576 0.21986,0.09772 0.31758,0.244294 0.0977,0.122146 0.0977,0.317581 z"
           style="font-style:normal;font-variant:normal;font-weight:normal;font-stretch:normal;font-family:Calibri;-inkscape-font-specification:Calibri;stroke-width:3.12695265"
           id="path3856"
           inkscape:connector-curvature="0" />
        <path
           d="m 288.53157,89.149097 q 0,0.488586 -0.0733,0.830597 -0.0489,0.34201 -0.17101,0.561874 -0.0977,0.219864 -0.24429,0.317581 -0.12215,0.09772 -0.31758,0.09772 h -8.28154 v 19.006011 q 0,0.19543 -0.0977,0.34201 -0.0977,0.12214 -0.31758,0.21986 -0.21986,0.0977 -0.61073,0.14658 -0.39087,0.0489 -1.0016,0.0489 -0.58631,0 -0.97717,-0.0489 -0.39087,-0.0489 -0.63517,-0.14658 -0.21986,-0.0977 -0.31758,-0.21986 -0.0733,-0.14658 -0.0733,-0.34201 V 88.782657 q 0,-0.732879 0.31759,-1.07489 0.34201,-0.36644 0.92831,-0.36644 h 11.06648 q 0.19543,0 0.31758,0.122147 0.14658,0.09772 0.24429,0.34201 0.12215,0.219864 0.17101,0.561875 0.0733,0.317581 0.0733,0.781738 z"
           style="font-style:normal;font-variant:normal;font-weight:normal;font-stretch:normal;font-family:Calibri;-inkscape-font-specification:Calibri;stroke-width:3.12695265"
           id="path3858"
           inkscape:connector-curvature="0" />
        <path
           d="m 321.53558,106.64049 q 0.14658,0.24429 0.14658,0.4153 0,0.171 -0.19544,0.29315 -0.171,0.12215 -0.56187,0.19543 -0.36644,0.0489 -0.97718,0.0489 -0.56187,0 -0.90388,0 -0.34201,-0.0244 -0.56187,-0.0977 -0.21987,-0.0733 -0.34201,-0.171 -0.12215,-0.0977 -0.26873,-0.31758 l -5.35002,-8.208253 q -0.34201,-0.513015 -0.34201,-0.977172 0,-0.488587 0.36644,-1.026032 l 5.22788,-8.037245 q 0.12214,-0.171005 0.24429,-0.293152 0.14657,-0.146576 0.36644,-0.219864 0.21986,-0.07329 0.56187,-0.07329 0.34201,-0.02443 0.87946,-0.02443 0.61073,0 0.97717,0.07329 0.39087,0.04886 0.56188,0.195434 0.19543,0.122147 0.19543,0.317581 0.0244,0.171006 -0.12215,0.415299 l -5.2523,8.672408 z M 307.22,97.870363 l 5.20344,9.112137 q 0.14658,0.24429 0.14658,0.46416 0.0244,0.19543 -0.14658,0.36644 -0.14657,0.14657 -0.51301,0.21986 -0.36644,0.0733 -1.0016,0.0733 -0.53745,0 -0.87946,-0.0244 -0.31758,-0.0244 -0.53744,-0.0977 -0.21987,-0.0733 -0.36644,-0.19543 -0.12215,-0.12215 -0.2443,-0.31758 l -5.39888,-8.623554 q -0.31758,-0.561874 -0.31758,-1.050461 0,-0.488586 0.36644,-1.026031 l 5.30117,-8.476973 q 0.12214,-0.195435 0.24429,-0.317581 0.14657,-0.122147 0.36644,-0.195435 0.21986,-0.07329 0.53744,-0.09772 0.34201,-0.02443 0.87946,-0.02443 0.61073,0 0.97717,0.07329 0.36644,0.07329 0.53745,0.219864 0.171,0.146576 0.171,0.342011 0,0.195434 -0.14657,0.464157 z"
           style="font-style:normal;font-variant:normal;font-weight:normal;font-stretch:normal;font-family:Calibri;-inkscape-font-specification:Calibri;stroke-width:3.12695265"
           id="path3860"
           inkscape:connector-curvature="0" />
        <path
           d="m 349.53158,88.220783 q 0,2.369644 -0.78174,4.27513 -0.78173,1.905487 -2.24749,3.2491 -1.44133,1.343612 -3.56668,2.076492 -2.10092,0.732879 -5.03244,0.732879 h -3.59111 v 11.384066 q 0,0.19543 -0.12215,0.34201 -0.0977,0.14657 -0.34201,0.24429 -0.21986,0.0733 -0.63516,0.12215 -0.39087,0.0733 -1.0016,0.0733 -0.61074,0 -1.02604,-0.0733 -0.39086,-0.0489 -0.63516,-0.12215 -0.24429,-0.0977 -0.34201,-0.24429 -0.0977,-0.14658 -0.0977,-0.34201 V 80.769841 q 0,-0.977173 0.51302,-1.392471 0.51302,-0.415299 1.14818,-0.415299 h 6.76692 q 1.02603,0 1.95434,0.09772 0.95275,0.07329 2.22307,0.36644 1.29476,0.268722 2.61394,1.05046 1.34361,0.757309 2.27193,1.881058 0.92831,1.123748 1.4169,2.613937 0.51301,1.465759 0.51301,3.249099 z m -4.4217,0.34201 q 0,-1.929916 -0.73288,-3.22467 -0.70845,-1.294753 -1.78334,-1.929916 -1.05046,-0.635162 -2.19864,-0.806167 -1.12375,-0.171005 -2.19864,-0.171005 h -3.88426 V 95.10985 h 3.78654 q 1.90549,0 3.15138,-0.488586 1.27033,-0.488586 2.12535,-1.343612 0.85503,-0.879456 1.29476,-2.076492 0.43973,-1.221466 0.43973,-2.638367 z"
           style="font-style:normal;font-variant:normal;font-weight:normal;font-stretch:normal;font-family:Calibri;-inkscape-font-specification:Calibri;stroke-width:3.12695265"
           id="path3862"
           inkscape:connector-curvature="0" />
        <path
           d="m 373.61889,98.016939 q 0,0.952744 -0.48858,1.368042 -0.46416,0.390869 -1.07489,0.390869 h -14.4133 q 0,1.8322 0.36644,3.29796 0.36644,1.46576 1.22147,2.51622 0.85502,1.05046 2.22306,1.61233 1.36804,0.56188 3.34682,0.56188 1.56348,0 2.78494,-0.2443 1.22147,-0.26872 2.10092,-0.5863 0.90389,-0.31758 1.46576,-0.56187 0.58631,-0.26873 0.87946,-0.26873 0.171,0 0.29315,0.0977 0.14658,0.0733 0.21986,0.24429 0.0733,0.17101 0.0977,0.48859 0.0489,0.29315 0.0489,0.73288 0,0.31758 -0.0244,0.56187 -0.0244,0.21987 -0.0733,0.4153 -0.0244,0.17101 -0.12214,0.31758 -0.0733,0.14658 -0.21987,0.29316 -0.12215,0.12214 -0.78174,0.43972 -0.65959,0.29315 -1.71005,0.58631 -1.05046,0.29315 -2.44293,0.51301 -1.36804,0.2443 -2.93152,0.2443 -2.71165,0 -4.76372,-0.75731 -2.02763,-0.75731 -3.4201,-2.2475 -1.39247,-1.49019 -2.10092,-3.73769 -0.70845,-2.24749 -0.70845,-5.22787 0,-2.833801 0.73288,-5.081298 0.73288,-2.271927 2.10092,-3.835403 1.39247,-1.587906 3.34682,-2.418503 1.95434,-0.855026 4.37284,-0.855026 2.58951,0 4.39728,0.830597 1.8322,0.830597 3.00481,2.247497 1.1726,1.392471 1.71005,3.297958 0.56187,1.881058 0.56187,4.030838 z m -4.05526,-1.197036 q 0.0733,-3.175812 -1.4169,-4.983581 -1.46576,-1.80777 -4.37285,-1.80777 -1.49019,0 -2.61394,0.561875 -1.12375,0.561874 -1.88106,1.490188 -0.75731,0.928314 -1.1726,2.174209 -0.4153,1.221466 -0.46416,2.565079 z"
           style="font-style:normal;font-variant:normal;font-weight:normal;font-stretch:normal;font-family:Calibri;-inkscape-font-specification:Calibri;stroke-width:3.12695265"
           id="path3864"
           inkscape:connector-curvature="0" />
        <path
           d="m 397.04661,109.96288 q 0,0.19543 -0.0977,0.34201 -0.0977,0.12214 -0.31759,0.21986 -0.21986,0.0977 -0.61073,0.14658 -0.39087,0.0489 -0.97717,0.0489 -0.61073,0 -1.0016,-0.0489 -0.39087,-0.0489 -0.63517,-0.14658 -0.21986,-0.0977 -0.31758,-0.21986 -0.0977,-0.14658 -0.0977,-0.34201 V 90.761432 h -6.05848 q -0.39086,3.884261 -0.95274,6.913497 -0.53744,3.029231 -1.22146,5.276731 -0.68403,2.2475 -1.53905,3.78655 -0.85503,1.53904 -1.88106,2.49179 -1.0016,0.92831 -2.19864,1.34361 -1.1726,0.4153 -2.51622,0.4153 -0.21986,0 -0.39087,-0.0733 -0.14657,-0.0733 -0.24429,-0.26872 -0.0977,-0.19544 -0.14658,-0.53745 -0.0488,-0.36644 -0.0488,-0.92831 0,-0.58631 0.0244,-0.95275 0.0489,-0.36644 0.12214,-0.5863 0.0977,-0.21986 0.21987,-0.29315 0.14657,-0.0733 0.34201,-0.0733 0.80616,0 1.53904,-0.36644 0.73288,-0.39087 1.36804,-1.24589 0.63517,-0.87946 1.19704,-2.27193 0.56188,-1.4169 1.02603,-3.468964 0.46416,-2.052063 0.87946,-4.788146 0.4153,-2.760513 0.78174,-6.327194 0.0489,-0.732879 0.34201,-1.07489 0.31758,-0.366439 0.87945,-0.366439 h 11.28635 q 0.5863,0 0.90388,0.366439 0.34201,0.342011 0.34201,1.07489 z"
           style="font-style:normal;font-variant:normal;font-weight:normal;font-stretch:normal;font-family:Calibri;-inkscape-font-specification:Calibri;stroke-width:3.12695265"
           id="path3866"
           inkscape:connector-curvature="0" />
        <path
           d="m 422.74626,102.97609 q 0,1.68562 -0.63516,3.15138 -0.61074,1.46576 -1.92992,2.54065 -1.31918,1.07489 -3.37125,1.71005 -2.05206,0.61074 -4.91029,0.61074 -0.65959,0 -1.36804,-0.0244 -0.70845,0 -1.39247,-0.0489 -0.68402,-0.0244 -1.34361,-0.0733 -0.6596,-0.0489 -1.29476,-0.12215 -1.02603,-0.12214 -1.51462,-0.65959 -0.48858,-0.53744 -0.48858,-1.63676 V 87.97649 q 0,-0.195435 0.0733,-0.317581 0.0977,-0.146576 0.31758,-0.244294 0.24429,-0.122146 0.63516,-0.146576 0.39087,-0.04886 0.97717,-0.04886 0.58631,0 0.97717,0.04886 0.39087,0.02443 0.61074,0.146576 0.24429,0.09772 0.34201,0.244294 0.0977,0.122146 0.0977,0.317581 v 7.744093 q 0.90388,-0.07329 1.95434,-0.09772 1.05046,-0.04886 2.14978,-0.04886 2.6628,0 4.56828,0.537445 1.92992,0.513016 3.15139,1.490189 1.22146,0.977172 1.80776,2.345214 0.58631,1.343619 0.58631,3.029239 z m -4.2507,0.26872 q 0,-1.0016 -0.31758,-1.80777 -0.31759,-0.83059 -1.05046,-1.39247 -0.73288,-0.586301 -1.90549,-0.879453 -1.17261,-0.317581 -2.88266,-0.317581 -1.02603,0 -2.02763,0.04886 -0.97718,0.04886 -1.78334,0.122146 v 8.452548 q 0.85502,0.0977 1.83219,0.171 0.97718,0.0733 2.17421,0.0733 3.02924,0 4.495,-1.17261 1.46576,-1.19704 1.46576,-3.29796 z"
           style="font-style:normal;font-variant:normal;font-weight:normal;font-stretch:normal;font-family:Calibri;-inkscape-font-specification:Calibri;stroke-width:3.12695265"
           id="path3868"
           inkscape:connector-curvature="0" />
        <path
           d="m 443.85316,106.61606 q 0,0.4153 -0.0244,0.73288 -0.0244,0.29315 -0.0977,0.51301 -0.0489,0.19544 -0.14658,0.36644 -0.0733,0.14658 -0.39087,0.46416 -0.29315,0.29315 -1.02603,0.75731 -0.73288,0.43973 -1.66119,0.80617 -0.90389,0.34201 -1.97878,0.56187 -1.07489,0.21987 -2.22307,0.21987 -2.36964,0 -4.20184,-0.78174 -1.8322,-0.78174 -3.07809,-2.27193 -1.22147,-1.51462 -1.88106,-3.68883 -0.63516,-2.19863 -0.63516,-5.056865 0,-3.249099 0.78173,-5.569884 0.80617,-2.345215 2.17421,-3.835403 1.39247,-1.490189 3.2491,-2.198639 1.88106,-0.732879 4.05527,-0.732879 1.05046,0 2.02763,0.195434 1.0016,0.195435 1.8322,0.513016 0.8306,0.317581 1.46576,0.732879 0.65959,0.415299 0.95274,0.708451 0.29316,0.293151 0.39087,0.464157 0.12215,0.171005 0.19544,0.415298 0.0733,0.219864 0.0977,0.513016 0.0244,0.293152 0.0244,0.732879 0,0.952744 -0.21986,1.343613 -0.21986,0.366439 -0.53744,0.366439 -0.36644,0 -0.85503,-0.390869 -0.46416,-0.415298 -1.19704,-0.903884 -0.73288,-0.488587 -1.78334,-0.879456 -1.02603,-0.415298 -2.44293,-0.415298 -2.90709,0 -4.47056,2.247497 -1.53905,2.223068 -1.53905,6.473769 0,2.125349 0.39087,3.737689 0.4153,1.5879 1.19703,2.66279 0.78174,1.07489 1.90549,1.61234 1.14818,0.51301 2.61394,0.51301 1.39247,0 2.44293,-0.43972 1.05046,-0.43973 1.80777,-0.95275 0.78174,-0.53744 1.29475,-0.95274 0.53745,-0.43973 0.8306,-0.43973 0.17101,0 0.29315,0.0977 0.12215,0.0977 0.19544,0.34201 0.0977,0.21986 0.12214,0.5863 0.0489,0.34201 0.0489,0.8306 z"
           style="font-style:normal;font-variant:normal;font-weight:normal;font-stretch:normal;font-family:Calibri;-inkscape-font-specification:Calibri;stroke-width:3.12695265"
           id="path3870"
           inkscape:connector-curvature="0" />
        <path
           d="m 469.69938,98.725389 q 0,2.687221 -0.70845,4.959151 -0.70845,2.2475 -2.12535,3.88426 -1.39247,1.63677 -3.51782,2.56508 -2.10092,0.90389 -4.88586,0.90389 -2.71166,0 -4.73929,-0.80617 -2.0032,-0.80617 -3.34682,-2.34522 -1.34361,-1.53904 -2.0032,-3.73768 -0.65959,-2.19864 -0.65959,-4.983583 0,-2.687225 0.68402,-4.934722 0.70845,-2.271927 2.10092,-3.908691 1.4169,-1.636764 3.51782,-2.540649 2.10092,-0.903885 4.91029,-0.903885 2.71166,0 4.71486,0.806168 2.02764,0.806167 3.37125,2.345214 1.34361,1.539047 2.0032,3.737686 0.68402,2.198638 0.68402,4.959151 z m -4.2507,0.268723 q 0,-1.78334 -0.34201,-3.371246 -0.31758,-1.587906 -1.07489,-2.784942 -0.75731,-1.197037 -2.05206,-1.881058 -1.29476,-0.70845 -3.22467,-0.70845 -1.78334,0 -3.0781,0.635162 -1.27032,0.635163 -2.10092,1.80777 -0.83059,1.148178 -1.24589,2.736084 -0.39087,1.587905 -0.39087,3.468963 0,1.807765 0.31758,3.395675 0.34201,1.58791 1.09932,2.78494 0.78174,1.17261 2.07649,1.88106 1.29476,0.68402 3.22467,0.68402 1.75891,0 3.05367,-0.63516 1.29475,-0.63516 2.12535,-1.78334 0.83059,-1.14818 1.22146,-2.73609 0.39087,-1.5879 0.39087,-3.493388 z"
           style="font-style:normal;font-variant:normal;font-weight:normal;font-stretch:normal;font-family:Calibri;-inkscape-font-specification:Calibri;stroke-width:3.12695265"
           id="path3872"
           inkscape:connector-curvature="0" />
        <path
           d="m 493.68898,103.63568 q 0,1.73448 -0.65959,3.10253 -0.6596,1.34361 -1.95435,2.27192 -1.29475,0.90389 -3.22467,1.39247 -1.92992,0.46416 -4.49499,0.46416 -0.80617,0 -1.56348,-0.0244 -0.75731,0 -1.46576,-0.0489 -0.70845,-0.0244 -1.4169,-0.0733 -0.68402,-0.0489 -1.36804,-0.12214 -0.97717,-0.12215 -1.44133,-0.63516 -0.46416,-0.53745 -0.46416,-1.56348 V 89.466678 q 0,-1.001602 0.43973,-1.539047 0.46416,-0.537445 1.39247,-0.635162 0.63516,-0.07329 1.34361,-0.122147 0.73288,-0.04886 1.49019,-0.07329 0.75731,-0.04886 1.56348,-0.07329 0.80616,-0.02443 1.63676,-0.02443 2.36965,0 4.10413,0.390869 1.73448,0.390869 2.88266,1.148178 1.14817,0.757309 1.68562,1.856628 0.56187,1.099319 0.56187,2.51622 0,1.856628 -1.0016,3.175811 -0.97717,1.319183 -2.90709,1.881058 2.41851,0.513015 3.63997,1.978774 1.22147,1.46576 1.22147,3.68883 z m -4.86144,-10.211453 q 0,-0.806167 -0.29315,-1.441329 -0.29315,-0.635163 -0.97717,-1.07489 -0.65959,-0.439728 -1.73448,-0.659592 -1.05046,-0.219864 -2.56508,-0.219864 -1.14818,0 -2.10092,0.07329 -0.95275,0.04886 -1.61234,0.122147 v 6.840209 h 4.10413 q 2.51622,0 3.8354,-0.928314 1.34361,-0.952744 1.34361,-2.711655 z m 0.73288,10.284743 q 0,-0.97717 -0.34201,-1.71005 -0.34201,-0.75731 -1.09932,-1.2459 -0.73288,-0.48858 -1.90548,-0.73288 -1.14818,-0.24429 -2.73609,-0.24429 h -3.93312 v 7.79295 q 0.46416,0.0733 0.95275,0.12215 0.51301,0.0244 1.02603,0.0733 0.53744,0.0244 1.05046,0.0489 0.53744,0.0244 0.97717,0.0244 1.58791,0 2.71165,-0.26872 1.12375,-0.29315 1.85663,-0.83059 0.75731,-0.53745 1.09932,-1.29476 0.34201,-0.78174 0.34201,-1.73448 z"
           style="font-style:normal;font-variant:normal;font-weight:normal;font-stretch:normal;font-family:Calibri;-inkscape-font-specification:Calibri;stroke-width:3.12695265"
           id="path3874"
           inkscape:connector-curvature="0" />
        <path
           d="m 525.42266,109.96288 q 0,0.19543 -0.0977,0.34201 -0.0977,0.12214 -0.31758,0.21986 -0.21987,0.0977 -0.61074,0.14658 -0.39087,0.0489 -1.0016,0.0489 -0.5863,0 -0.97717,-0.0489 -0.39087,-0.0489 -0.63516,-0.14658 -0.21987,-0.0977 -0.31759,-0.21986 -0.0733,-0.14658 -0.0733,-0.34201 V 87.97649 q 0,-0.195435 0.0733,-0.317581 0.0977,-0.146576 0.31759,-0.244294 0.24429,-0.122146 0.63516,-0.146576 0.39087,-0.04886 0.97717,-0.04886 0.61073,0 1.0016,0.04886 0.39087,0.02443 0.61074,0.146576 0.21986,0.09772 0.31758,0.244294 0.0977,0.122146 0.0977,0.317581 z M 503.60728,95.720583 q 0.90389,-0.07329 1.80777,-0.09772 0.92832,-0.04886 2.00321,-0.04886 2.61393,0 4.47056,0.537445 1.85663,0.513016 3.05367,1.490189 1.22146,0.977172 1.78334,2.345214 0.56187,1.343619 0.56187,3.029239 0,1.68562 -0.61073,3.15138 -0.58631,1.46576 -1.88106,2.54065 -1.27032,1.07489 -3.27353,1.71005 -2.0032,0.61074 -4.81257,0.61074 -0.65959,0 -1.31919,-0.0244 -0.65959,0 -1.29475,-0.0489 -0.63516,-0.0244 -1.27032,-0.0733 -0.61074,-0.0489 -1.2459,-0.12215 -1.02603,-0.12214 -1.51462,-0.65959 -0.48858,-0.53744 -0.48858,-1.63676 V 87.97649 q 0,-0.195435 0.0733,-0.317581 0.0977,-0.146576 0.31759,-0.244294 0.24429,-0.122146 0.61073,-0.146576 0.39087,-0.04886 0.95274,-0.04886 1.17261,0 1.61234,0.195434 0.46415,0.171006 0.46415,0.561875 z m 9.47858,7.524227 q 0,-1.0016 -0.31758,-1.80777 -0.29315,-0.83059 -1.0016,-1.39247 -0.68403,-0.586301 -1.8322,-0.879453 -1.14818,-0.317581 -2.80937,-0.317581 -1.00161,0 -1.85663,0.04886 -0.85503,0.04886 -1.6612,0.122146 v 8.452548 q 0.85503,0.0977 1.68563,0.171 0.83059,0.0733 2.02763,0.0733 2.98038,0 4.37285,-1.17261 1.39247,-1.19704 1.39247,-3.29796 z"
           style="font-style:normal;font-variant:normal;font-weight:normal;font-stretch:normal;font-family:Calibri;-inkscape-font-specification:Calibri;stroke-width:3.12695265"
           id="path3876"
           inkscape:connector-curvature="0" />
        <path
           d="m 552.46592,109.9873 q 0,0.17101 -0.0977,0.31759 -0.0977,0.14657 -0.31758,0.24429 -0.21987,0.0733 -0.61074,0.12215 -0.39087,0.0489 -0.97717,0.0489 -0.5863,0 -0.97717,-0.0489 -0.39087,-0.0489 -0.63517,-0.12215 -0.24429,-0.0977 -0.34201,-0.24429 -0.0977,-0.14658 -0.0977,-0.31759 V 97.332918 q 0,-0.952743 0.0489,-1.929916 0.0489,-1.001602 0.12214,-1.954345 -0.56187,0.977172 -1.24589,1.929916 -0.65959,0.928314 -1.34362,1.856628 l -9.33199,12.752099 q -0.17101,0.19544 -0.31759,0.34202 -0.12214,0.14657 -0.34201,0.24429 -0.19543,0.0733 -0.51301,0.0977 -0.31758,0.0489 -0.78174,0.0489 -0.53745,0 -0.87946,-0.0489 -0.34201,-0.0489 -0.56187,-0.12215 -0.19543,-0.0977 -0.29315,-0.24429 -0.0733,-0.14658 -0.0733,-0.31759 V 87.95206 q 0,-0.171005 0.0733,-0.317581 0.0977,-0.146576 0.31758,-0.244293 0.24429,-0.09772 0.63516,-0.122147 0.39087,-0.04886 0.95274,-0.04886 1.17261,0 1.61234,0.195434 0.43973,0.171006 0.43973,0.537445 v 12.727672 q 0,0.95275 -0.0489,1.90549 -0.0489,0.92832 -0.12215,1.85663 0.56188,-0.92831 1.12375,-1.80777 0.5863,-0.90388 1.2459,-1.75891 l 9.45414,-12.923112 q 0.14658,-0.195434 0.29315,-0.34201 0.17101,-0.146576 0.39087,-0.219864 0.2443,-0.09772 0.56188,-0.122147 0.31758,-0.04886 0.83059,-0.04886 0.51302,0 0.85503,0.04886 0.36644,0.02443 0.56187,0.122147 0.21987,0.09772 0.29316,0.244293 0.0977,0.146576 0.0977,0.342011 z m -2.14978,-32.39327 q 0,1.392471 -0.41529,2.613937 -0.4153,1.221466 -1.31919,2.14978 -0.90388,0.903884 -2.32078,1.441329 -1.4169,0.513016 -3.44454,0.513016 -1.85663,0 -3.27353,-0.464157 -1.39247,-0.464157 -2.34521,-1.319183 -0.92831,-0.879456 -1.4169,-2.125351 -0.46416,-1.245895 -0.46416,-2.809371 0,-0.244293 0.0733,-0.415299 0.0977,-0.171005 0.31758,-0.268722 0.24429,-0.09772 0.61073,-0.146576 0.39087,-0.04886 0.92832,-0.04886 0.5863,0 0.92831,0.07329 0.34201,0.04886 0.51302,0.171005 0.19543,0.122147 0.24429,0.317582 0.0733,0.195434 0.0733,0.464157 0,0.781738 0.24429,1.441329 0.2443,0.659592 0.73288,1.148178 0.51302,0.488587 1.22147,0.757309 0.70845,0.268723 1.63676,0.268723 0.90389,0 1.58791,-0.268723 0.70845,-0.268722 1.19703,-0.757309 0.48859,-0.488586 0.73288,-1.172607 0.2443,-0.684021 0.2443,-1.465759 0,-0.244293 0.0489,-0.415298 0.0733,-0.195435 0.24429,-0.317582 0.19543,-0.122146 0.51301,-0.171005 0.34202,-0.07329 0.90389,-0.07329 0.5863,0 0.95274,0.04886 0.39087,0.04886 0.61074,0.146576 0.24429,0.09772 0.34201,0.268722 0.0977,0.171006 0.0977,0.415299 z m -18.22427,9.747297 z"
           style="font-style:normal;font-variant:normal;font-weight:normal;font-stretch:normal;font-family:Calibri;-inkscape-font-specification:Calibri;stroke-width:3.12695265"
           id="path3878"
           inkscape:connector-curvature="0" />
        <path
           d="m 586.5204,103.87998 q 0,1.66119 -0.65959,2.98037 -0.6596,1.31919 -1.90549,2.27193 -1.22147,0.92831 -3.00481,1.4169 -1.78334,0.48859 -4.05526,0.48859 -1.27033,0 -2.39408,-0.19544 -1.09932,-0.171 -2.02763,-0.43973 -0.90388,-0.29315 -1.53905,-0.61073 -0.61073,-0.34201 -0.87945,-0.56187 -0.2443,-0.21987 -0.36644,-0.39087 -0.12215,-0.19544 -0.17101,-0.4153 -0.0489,-0.21987 -0.0977,-0.53745 -0.0244,-0.31758 -0.0244,-0.75731 0,-0.39086 0.0489,-0.65959 0.0489,-0.26872 0.12214,-0.43972 0.0733,-0.17101 0.17101,-0.2443 0.0977,-0.0977 0.26872,-0.0977 0.26872,0 0.73288,0.34202 0.48859,0.31758 1.29475,0.73287 0.80617,0.39087 1.97878,0.73288 1.19703,0.34201 2.93152,0.34201 1.22146,0 2.19863,-0.24429 0.97718,-0.26872 1.6612,-0.75731 0.68402,-0.51301 1.05046,-1.27032 0.39087,-0.75731 0.39087,-1.75891 0,-0.85503 -0.36644,-1.53905 -0.36644,-0.68402 -1.14818,-1.14818 -0.78174,-0.48858 -2.0032,-0.75731 -1.22147,-0.26872 -2.95595,-0.26872 h -2.44293 q -0.2443,0 -0.39087,-0.0733 -0.14658,-0.09771 -0.26872,-0.268719 -0.0977,-0.195435 -0.14658,-0.488587 -0.0244,-0.317581 -0.0244,-0.732879 0,-0.390869 0.0489,-0.684021 0.0489,-0.293152 0.14657,-0.464157 0.0977,-0.171005 0.2443,-0.244293 0.14657,-0.09772 0.36644,-0.09772 h 2.36964 q 1.53905,0 2.63837,-0.244293 1.12375,-0.244293 1.85663,-0.70845 0.7573,-0.488586 1.09931,-1.172607 0.36644,-0.70845 0.36644,-1.612335 0,-0.806168 -0.34201,-1.416901 -0.34201,-0.610732 -0.92831,-1.001602 -0.56187,-0.415298 -1.39247,-0.610732 -0.8306,-0.219864 -1.78334,-0.219864 -1.49019,0 -2.6628,0.34201 -1.14817,0.342011 -2.0032,0.757309 -0.8306,0.390869 -1.36804,0.732879 -0.53745,0.317582 -0.75731,0.317582 -0.12215,0 -0.24429,-0.04886 -0.0977,-0.07329 -0.19544,-0.219864 -0.0733,-0.171005 -0.12215,-0.439728 -0.0244,-0.293151 -0.0244,-0.684021 0,-0.70845 0.0977,-1.123748 0.12215,-0.415299 0.4153,-0.70845 0.29315,-0.293152 1.02603,-0.684021 0.73288,-0.390869 1.71005,-0.684021 1.00161,-0.317581 2.14978,-0.513016 1.17261,-0.219864 2.39408,-0.219864 1.78334,0 3.27353,0.390869 1.49018,0.36644 2.54064,1.148178 1.07489,0.757309 1.6612,1.905487 0.5863,1.123749 0.5863,2.638366 0,0.903885 -0.29315,1.734482 -0.29315,0.806167 -0.85503,1.490188 -0.53744,0.684021 -1.34361,1.221466 -0.80617,0.537445 -1.78334,0.830597 l -0.0489,0.02443 q 0.95275,0.09772 1.88106,0.561875 0.92831,0.439727 1.66119,1.172607 0.73288,0.708448 1.17261,1.710058 0.46416,0.97717 0.46416,2.17421 z"
           style="font-style:normal;font-variant:normal;font-weight:normal;font-stretch:normal;font-family:Calibri;-inkscape-font-specification:Calibri;stroke-width:3.12695265"
           id="path3880"
           inkscape:connector-curvature="0" />
        <path
           d="m 609.06866,109.9873 q 0,0.29316 -0.19543,0.43973 -0.19544,0.14658 -0.53745,0.21987 -0.34201,0.0733 -1.0016,0.0733 -0.63516,0 -1.02603,-0.0733 -0.36644,-0.0733 -0.53745,-0.21987 -0.171,-0.14657 -0.171,-0.43973 v -2.19863 q -1.44133,1.53904 -3.22467,2.39407 -1.75891,0.85503 -3.73769,0.85503 -1.73448,0 -3.15138,-0.46416 -1.39247,-0.43973 -2.39407,-1.29476 -0.97717,-0.85502 -1.53905,-2.10092 -0.53744,-1.24589 -0.53744,-2.8338 0,-1.85663 0.7573,-3.22467 0.75731,-1.368039 2.17421,-2.271924 1.4169,-0.903885 3.46897,-1.343612 2.05206,-0.464158 4.61714,-0.464158 h 3.02923 v -1.710052 q 0,-1.270324 -0.26872,-2.247497 -0.26872,-0.977173 -0.87945,-1.612335 -0.58631,-0.659592 -1.53905,-0.977173 -0.95274,-0.34201 -2.34522,-0.34201 -1.49018,0 -2.68722,0.36644 -1.17261,0.34201 -2.07649,0.781738 -0.87946,0.415298 -1.49019,0.781738 -0.5863,0.34201 -0.87946,0.34201 -0.19543,0 -0.34201,-0.09772 -0.14657,-0.09772 -0.26872,-0.293152 -0.0977,-0.195434 -0.14658,-0.488586 -0.0489,-0.317581 -0.0489,-0.684021 0,-0.610733 0.0733,-0.952743 0.0977,-0.36644 0.4153,-0.684021 0.34201,-0.317581 1.14818,-0.73288 0.80617,-0.439727 1.85663,-0.781738 1.05046,-0.36644 2.29635,-0.586303 1.2459,-0.244294 2.51622,-0.244294 2.36965,0 4.03084,0.537445 1.66119,0.537445 2.68723,1.587906 1.02603,1.026031 1.49018,2.565078 0.46416,1.539047 0.46416,3.59111 z m -4.00641,-10.040445 h -3.44453 q -1.66119,0 -2.88266,0.293155 -1.22147,0.26872 -2.02763,0.83059 -0.80617,0.53745 -1.19704,1.31919 -0.36644,0.75731 -0.36644,1.75891 0,1.71005 1.07489,2.73608 1.09932,1.0016 3.05367,1.0016 1.5879,0 2.93151,-0.80616 1.36805,-0.80617 2.85823,-2.46737 z"
           style="font-style:normal;font-variant:normal;font-weight:normal;font-stretch:normal;font-family:Calibri;-inkscape-font-specification:Calibri;stroke-width:3.12695265"
           id="path3882"
           inkscape:connector-curvature="0" />
        <path
           d="m 634.49958,103.63568 q 0,1.73448 -0.65959,3.10253 -0.65959,1.34361 -1.95434,2.27192 -1.29476,0.90389 -3.22467,1.39247 -1.92992,0.46416 -4.495,0.46416 -0.80616,0 -1.56347,-0.0244 -0.75731,0 -1.46576,-0.0489 -0.70845,-0.0244 -1.4169,-0.0733 -0.68402,-0.0489 -1.36804,-0.12214 -0.97718,-0.12215 -1.44133,-0.63516 -0.46416,-0.53745 -0.46416,-1.56348 V 89.466678 q 0,-1.001602 0.43973,-1.539047 0.46415,-0.537445 1.39247,-0.635162 0.63516,-0.07329 1.34361,-0.122147 0.73288,-0.04886 1.49019,-0.07329 0.75731,-0.04886 1.56347,-0.07329 0.80617,-0.02443 1.63677,-0.02443 2.36964,0 4.10412,0.390869 1.73449,0.390869 2.88266,1.148178 1.14818,0.757309 1.68563,1.856628 0.56187,1.099319 0.56187,2.51622 0,1.856628 -1.0016,3.175811 -0.97717,1.319183 -2.90709,1.881058 2.4185,0.513015 3.63997,1.978774 1.22146,1.46576 1.22146,3.68883 z m -4.86143,-10.211453 q 0,-0.806167 -0.29315,-1.441329 -0.29315,-0.635163 -0.97717,-1.07489 -0.6596,-0.439728 -1.73449,-0.659592 -1.05046,-0.219864 -2.56507,-0.219864 -1.14818,0 -2.10093,0.07329 -0.95274,0.04886 -1.61233,0.122147 v 6.840209 h 4.10413 q 2.51621,0 3.8354,-0.928314 1.34361,-0.952744 1.34361,-2.711655 z m 0.73288,10.284743 q 0,-0.97717 -0.34201,-1.71005 -0.34201,-0.75731 -1.09932,-1.2459 -0.73288,-0.48858 -1.90549,-0.73288 -1.14817,-0.24429 -2.73608,-0.24429 h -3.93312 v 7.79295 q 0.46416,0.0733 0.95274,0.12215 0.51302,0.0244 1.02603,0.0733 0.53745,0.0244 1.05047,0.0489 0.53744,0.0244 0.97717,0.0244 1.5879,0 2.71165,-0.26872 1.12375,-0.29315 1.85663,-0.83059 0.75731,-0.53745 1.09932,-1.29476 0.34201,-0.78174 0.34201,-1.73448 z"
           style="font-style:normal;font-variant:normal;font-weight:normal;font-stretch:normal;font-family:Calibri;-inkscape-font-specification:Calibri;stroke-width:3.12695265"
           id="path3884"
           inkscape:connector-curvature="0" />
        <path
           d="m 660.83439,98.725389 q 0,2.687221 -0.70845,4.959151 -0.70845,2.2475 -2.12535,3.88426 -1.39247,1.63677 -3.51782,2.56508 -2.10092,0.90389 -4.88586,0.90389 -2.71166,0 -4.73929,-0.80617 -2.00321,-0.80617 -3.34682,-2.34522 -1.34361,-1.53904 -2.0032,-3.73768 -0.65959,-2.19864 -0.65959,-4.983583 0,-2.687225 0.68402,-4.934722 0.70845,-2.271927 2.10092,-3.908691 1.4169,-1.636764 3.51782,-2.540649 2.10092,-0.903885 4.91029,-0.903885 2.71166,0 4.71486,0.806168 2.02764,0.806167 3.37125,2.345214 1.34361,1.539047 2.0032,3.737686 0.68402,2.198638 0.68402,4.959151 z m -4.2507,0.268723 q 0,-1.78334 -0.34201,-3.371246 -0.31758,-1.587906 -1.07489,-2.784942 -0.75731,-1.197037 -2.05206,-1.881058 -1.29476,-0.70845 -3.22467,-0.70845 -1.78334,0 -3.0781,0.635162 -1.27032,0.635163 -2.10092,1.80777 -0.83059,1.148178 -1.24589,2.736084 -0.39087,1.587905 -0.39087,3.468963 0,1.807765 0.31758,3.395675 0.34201,1.58791 1.09932,2.78494 0.78174,1.17261 2.07649,1.88106 1.29476,0.68402 3.22467,0.68402 1.75891,0 3.05367,-0.63516 1.29475,-0.63516 2.12535,-1.78334 0.83059,-1.14818 1.22146,-2.73609 0.39087,-1.5879 0.39087,-3.493388 z"
           style="font-style:normal;font-variant:normal;font-weight:normal;font-stretch:normal;font-family:Calibri;-inkscape-font-specification:Calibri;stroke-width:3.12695265"
           id="path3886"
           inkscape:connector-curvature="0" />
        <path
           d="m 665.64697,117.95126 q 0,0.17101 -0.0733,0.26872 -0.0733,0.12215 -0.29315,0.19544 -0.19543,0.0733 -0.51301,0.12215 -0.31758,0.0489 -0.78174,0.0489 -0.51302,0 -0.85503,-0.0489 -0.31758,-0.0489 -0.53744,-0.12215 -0.19544,-0.0733 -0.29315,-0.19544 -0.0733,-0.0977 -0.0733,-0.26872 v -9.79615 q 0,-0.61074 0.19543,-0.80617 0.19544,-0.19544 0.75731,-0.19544 h 1.56348 q 0.90388,-1.09932 1.68562,-2.51622 0.78174,-1.4169 1.44133,-3.54225 0.68402,-2.149777 1.2459,-5.154583 0.56187,-3.004806 1.02603,-7.182219 0.0489,-0.342011 0.12214,-0.610733 0.0977,-0.293152 0.2443,-0.439728 0.171,-0.171005 0.39087,-0.268722 0.21986,-0.09772 0.51301,-0.09772 h 12.21466 q 0.5863,0 0.90388,0.36644 0.34201,0.342011 0.34201,1.07489 V 107.1535 h 3.05367 q 0.51302,0 0.73288,0.19544 0.21986,0.19543 0.21986,0.80617 v 9.79615 q 0,0.17101 -0.0733,0.26872 -0.0733,0.12215 -0.29316,0.19544 -0.19543,0.0733 -0.53744,0.12215 -0.34201,0.0489 -0.80617,0.0489 -0.48859,0 -0.80617,-0.0489 -0.31758,-0.0489 -0.53744,-0.12215 -0.19544,-0.0733 -0.29315,-0.19544 -0.0733,-0.0977 -0.0733,-0.26872 v -7.37765 h -19.81218 z m 15.17061,-27.287545 h -6.96236 q -0.51301,3.981978 -1.07489,6.718062 -0.53744,2.736083 -1.1726,4.617143 -0.61074,1.88106 -1.29476,3.07809 -0.68402,1.17261 -1.4169,2.07649 h 11.92151 z"
           style="font-style:normal;font-variant:normal;font-weight:normal;font-stretch:normal;font-family:Calibri;-inkscape-font-specification:Calibri;stroke-width:3.12695265"
           id="path3888"
           inkscape:connector-curvature="0" />
        <path
           d="m 722.17642,106.64049 q 0.14657,0.24429 0.14657,0.4153 0,0.171 -0.19543,0.29315 -0.171,0.12215 -0.56187,0.19543 -0.36644,0.0489 -0.97718,0.0489 -0.56187,0 -0.90388,0 -0.34201,-0.0244 -0.56188,-0.0977 -0.21986,-0.0733 -0.34201,-0.171 -0.12214,-0.0977 -0.26872,-0.31758 L 713.162,98.798677 q -0.34201,-0.513015 -0.34201,-0.977172 0,-0.488587 0.36644,-1.026032 l 5.22787,-8.037245 q 0.12215,-0.171005 0.2443,-0.293152 0.14657,-0.146576 0.36644,-0.219864 0.21986,-0.07329 0.56187,-0.07329 0.34201,-0.02443 0.87946,-0.02443 0.61073,0 0.97717,0.07329 0.39087,0.04886 0.56187,0.195434 0.19544,0.122147 0.19544,0.317581 0.0244,0.171006 -0.12215,0.415299 l -5.2523,8.672408 z m -14.31558,-8.770127 5.20344,9.112137 q 0.14658,0.24429 0.14658,0.46416 0.0244,0.19543 -0.14658,0.36644 -0.14657,0.14657 -0.51301,0.21986 -0.36644,0.0733 -1.0016,0.0733 -0.53745,0 -0.87946,-0.0244 -0.31758,-0.0244 -0.53744,-0.0977 -0.21987,-0.0733 -0.36644,-0.19543 -0.12215,-0.12215 -0.2443,-0.31758 l -5.39888,-8.623554 q -0.31758,-0.561874 -0.31758,-1.050461 0,-0.488586 0.36644,-1.026031 l 5.30116,-8.476973 q 0.12215,-0.195435 0.2443,-0.317581 0.14657,-0.122147 0.36644,-0.195435 0.21986,-0.07329 0.53744,-0.09772 0.34201,-0.02443 0.87946,-0.02443 0.61073,0 0.97717,0.07329 0.36644,0.07329 0.53744,0.219864 0.17101,0.146576 0.17101,0.342011 0,0.195434 -0.14658,0.464157 z"
           style="font-style:normal;font-variant:normal;font-weight:normal;font-stretch:normal;font-family:Calibri;-inkscape-font-specification:Calibri;stroke-width:3.12695265"
           id="path3890"
           inkscape:connector-curvature="0" />
        <path
           d="m 757.23243,94.4014 q 0,3.835403 -0.90388,6.9135 -0.90389,3.07809 -2.71166,5.2523 -1.78334,2.14978 -4.49499,3.32239 -2.71166,1.14818 -6.32719,1.14818 -3.56668,0 -6.18062,-1.05047 -2.58951,-1.07489 -4.29956,-3.10252 -1.68562,-2.02763 -2.51622,-5.03244 -0.8306,-3.004804 -0.8306,-6.913495 0,-3.737685 0.90389,-6.79135 0.90388,-3.053665 2.71165,-5.179015 1.80777,-2.14978 4.51942,-3.297958 2.71166,-1.172608 6.3272,-1.172608 3.49339,0 6.0829,1.050461 2.58951,1.050461 4.29956,3.078094 1.73448,2.003204 2.56508,4.983581 0.85502,2.955947 0.85502,6.79135 z m -4.4217,0.293152 q 0,-2.687225 -0.48859,-4.983581 -0.46416,-2.320785 -1.58791,-4.006408 -1.09932,-1.710052 -2.95594,-2.662795 -1.85663,-0.952744 -4.59272,-0.952744 -2.73608,0 -4.59271,1.026031 -1.85662,1.026032 -3.02923,2.736084 -1.14818,1.710052 -1.6612,4.006408 -0.48858,2.271927 -0.48858,4.788146 0,2.784943 0.46415,5.130157 0.46416,2.34521 1.56348,4.05527 1.09932,1.68562 2.93152,2.63836 1.85663,0.92832 4.64157,0.92832 2.76051,0 4.64157,-1.02603 1.88106,-1.02604 3.02924,-2.76052 1.14817,-1.75891 1.63676,-4.055264 0.48859,-2.296356 0.48859,-4.861434 z"
           style="font-style:normal;font-variant:normal;font-weight:normal;font-stretch:normal;font-family:Calibri;-inkscape-font-specification:Calibri;stroke-width:3.12695265"
           id="path3892"
           inkscape:connector-curvature="0" />
        <path
           d="m 781.97934,109.96288 q 0,0.19543 -0.0977,0.34201 -0.0977,0.12214 -0.31758,0.21986 -0.21987,0.0977 -0.61074,0.14658 -0.39086,0.0489 -0.97717,0.0489 -0.61073,0 -1.0016,-0.0489 -0.39087,-0.0489 -0.63516,-0.14658 -0.21987,-0.0977 -0.31758,-0.21986 -0.0977,-0.14658 -0.0977,-0.34201 V 90.761432 h -10.48018 v 19.201448 q 0,0.19543 -0.0977,0.34201 -0.0977,0.12214 -0.34201,0.21986 -0.21986,0.0977 -0.61073,0.14658 -0.39087,0.0489 -0.97717,0.0489 -0.5863,0 -0.97717,-0.0489 -0.39087,-0.0489 -0.63517,-0.14658 -0.21986,-0.0977 -0.31758,-0.21986 -0.0733,-0.14658 -0.0733,-0.34201 V 88.782657 q 0,-0.732879 0.31759,-1.07489 0.34201,-0.36644 0.92831,-0.36644 h 16.09892 q 0.5863,0 0.90389,0.36644 0.31758,0.342011 0.31758,1.07489 z"
           style="font-style:normal;font-variant:normal;font-weight:normal;font-stretch:normal;font-family:Calibri;-inkscape-font-specification:Calibri;stroke-width:3.12695265"
           id="path3894"
           inkscape:connector-curvature="0" />
        <path
           d="m 804.89404,89.173526 q 0,0.488587 -0.0489,0.830597 -0.0489,0.34201 -0.171,0.561874 -0.0977,0.219864 -0.2443,0.342011 -0.14657,0.09772 -0.36644,0.09772 h -6.59591 v 18.957152 q 0,0.19543 -0.0977,0.34201 -0.0977,0.12214 -0.31758,0.21986 -0.21986,0.0977 -0.61073,0.14658 -0.39087,0.0489 -1.00161,0.0489 -0.5863,0 -0.97717,-0.0489 -0.39087,-0.0489 -0.63516,-0.14658 -0.21986,-0.0977 -0.31758,-0.21986 -0.0733,-0.14658 -0.0733,-0.34201 V 91.005725 h -6.59592 q -0.19543,0 -0.36644,-0.09772 -0.14657,-0.122147 -0.24429,-0.342011 -0.0977,-0.219864 -0.171,-0.561874 -0.0489,-0.36644 -0.0489,-0.855026 0,-0.439728 0.0489,-0.781738 0.0733,-0.342011 0.171,-0.561875 0.12215,-0.244293 0.26872,-0.34201 0.14658,-0.122147 0.34201,-0.122147 h 17.22267 q 0.19544,0 0.34201,0.122147 0.17101,0.09772 0.26873,0.34201 0.0977,0.219864 0.14657,0.586304 0.0733,0.34201 0.0733,0.781738 z"
           style="font-style:normal;font-variant:normal;font-weight:normal;font-stretch:normal;font-family:Calibri;-inkscape-font-specification:Calibri;stroke-width:3.12695265"
           id="path3896"
           inkscape:connector-curvature="0" />
        <path
           d="m 817.76829,98.236803 q 0,0.952743 -0.21986,1.319183 -0.21986,0.36644 -0.63516,0.36644 h -10.21146 q -0.43973,0 -0.65959,-0.36644 -0.21986,-0.390869 -0.21986,-1.319183 0,-0.928314 0.21986,-1.294754 0.21986,-0.36644 0.65959,-0.36644 h 10.21146 q 0.19543,0 0.34201,0.07329 0.171,0.07329 0.26872,0.293152 0.12215,0.195435 0.17101,0.513016 0.0733,0.317581 0.0733,0.781738 z"
           style="font-style:normal;font-variant:normal;font-weight:normal;font-stretch:normal;font-family:Calibri;-inkscape-font-specification:Calibri;stroke-width:3.12695265"
           id="path3898"
           inkscape:connector-curvature="0" />
        <path
           d="m 843.44351,98.627672 q 0,2.882658 -0.63516,5.179018 -0.61074,2.29635 -1.8322,3.90869 -1.19704,1.5879 -2.98038,2.46736 -1.78334,0.85503 -4.0797,0.85503 -0.97717,0 -1.80777,-0.19544 -0.83059,-0.19543 -1.63676,-0.61073 -0.78174,-0.4153 -1.56348,-1.05046 -0.78173,-0.63516 -1.66119,-1.49019 v 10.99319 q 0,0.19544 -0.0977,0.34201 -0.0977,0.14658 -0.31758,0.2443 -0.21986,0.0977 -0.61073,0.14657 -0.39087,0.0489 -1.0016,0.0489 -0.58631,0 -0.97718,-0.0489 -0.39086,-0.0489 -0.63516,-0.14657 -0.21986,-0.0977 -0.31758,-0.2443 -0.0733,-0.14657 -0.0733,-0.34201 V 87.97649 q 0,-0.219864 0.0733,-0.342011 0.0733,-0.146576 0.29315,-0.244293 0.21987,-0.09772 0.56188,-0.122147 0.34201,-0.04886 0.83059,-0.04886 0.51302,0 0.8306,0.04886 0.34201,0.02443 0.56188,0.122147 0.21986,0.09772 0.29315,0.244293 0.0977,0.122147 0.0977,0.342011 v 2.955947 q 1.00161,-1.026031 1.92992,-1.78334 0.92831,-0.757309 1.85663,-1.245895 0.95274,-0.513016 1.92991,-0.757309 1.00161,-0.268723 2.10093,-0.268723 2.39407,0 4.07969,0.928314 1.68562,0.928314 2.73609,2.540649 1.07489,1.612335 1.56347,3.762115 0.48859,2.125351 0.48859,4.519424 z m -4.2507,0.464157 q 0,-1.685623 -0.26873,-3.249099 -0.24429,-1.587906 -0.87945,-2.809372 -0.61073,-1.221465 -1.66119,-1.954345 -1.05047,-0.73288 -2.61394,-0.73288 -0.78174,0 -1.53905,0.244294 -0.75731,0.219863 -1.53905,0.732879 -0.78173,0.488587 -1.63676,1.319183 -0.85503,0.806168 -1.80777,2.003204 v 8.745697 q 1.66119,2.02763 3.15138,3.10252 1.49019,1.07489 3.12696,1.07489 1.51461,0 2.5895,-0.73288 1.09932,-0.73288 1.75891,-1.95434 0.68402,-1.22147 1.00161,-2.73609 0.31758,-1.51461 0.31758,-3.053661 z"
           style="font-style:normal;font-variant:normal;font-weight:normal;font-stretch:normal;font-family:Calibri;-inkscape-font-specification:Calibri;stroke-width:3.12695265"
           id="path3900"
           inkscape:connector-curvature="0" />
        <path
           d="m 868.2637,98.016939 q 0,0.952744 -0.48859,1.368042 -0.46415,0.390869 -1.07489,0.390869 h -14.41329 q 0,1.8322 0.36644,3.29796 0.36643,1.46576 1.22146,2.51622 0.85503,1.05046 2.22307,1.61233 1.36804,0.56188 3.34682,0.56188 1.56347,0 2.78494,-0.2443 1.22146,-0.26872 2.10092,-0.5863 0.90388,-0.31758 1.46576,-0.56187 0.5863,-0.26873 0.87945,-0.26873 0.17101,0 0.29316,0.0977 0.14657,0.0733 0.21986,0.24429 0.0733,0.17101 0.0977,0.48859 0.0489,0.29315 0.0489,0.73288 0,0.31758 -0.0244,0.56187 -0.0244,0.21987 -0.0733,0.4153 -0.0244,0.17101 -0.12215,0.31758 -0.0733,0.14658 -0.21986,0.29316 -0.12215,0.12214 -0.78174,0.43972 -0.65959,0.29315 -1.71005,0.58631 -1.05046,0.29315 -2.44293,0.51301 -1.36805,0.2443 -2.93152,0.2443 -2.71166,0 -4.76372,-0.75731 -2.02763,-0.75731 -3.4201,-2.2475 -1.39248,-1.49019 -2.10093,-3.73769 -0.70845,-2.24749 -0.70845,-5.22787 0,-2.833801 0.73288,-5.081298 0.73288,-2.271927 2.10092,-3.835403 1.39248,-1.587906 3.34682,-2.418503 1.95435,-0.855026 4.37285,-0.855026 2.58951,0 4.39728,0.830597 1.8322,0.830597 3.0048,2.247497 1.17261,1.392471 1.71005,3.297958 0.56188,1.881058 0.56188,4.030838 z m -4.05527,-1.197036 q 0.0733,-3.175812 -1.4169,-4.983581 -1.46576,-1.80777 -4.37285,-1.80777 -1.49018,0 -2.61393,0.561875 -1.12375,0.561874 -1.88106,1.490188 -0.75731,0.928314 -1.17261,2.174209 -0.4153,1.221466 -0.46415,2.565079 z"
           style="font-style:normal;font-variant:normal;font-weight:normal;font-stretch:normal;font-family:Calibri;-inkscape-font-specification:Calibri;stroke-width:3.12695265"
           id="path3902"
           inkscape:connector-curvature="0" />
        <path
           d="m 891.69142,109.96288 q 0,0.19543 -0.0977,0.34201 -0.0977,0.12214 -0.31758,0.21986 -0.21986,0.0977 -0.61073,0.14658 -0.39087,0.0489 -0.97718,0.0489 -0.61073,0 -1.0016,-0.0489 -0.39087,-0.0489 -0.63516,-0.14658 -0.21986,-0.0977 -0.31758,-0.21986 -0.0977,-0.14658 -0.0977,-0.34201 V 90.761432 h -6.05847 q -0.39087,3.884261 -0.95274,6.913497 -0.53745,3.029231 -1.22147,5.276731 -0.68402,2.2475 -1.53905,3.78655 -0.85502,1.53904 -1.88105,2.49179 -1.00161,0.92831 -2.19864,1.34361 -1.17261,0.4153 -2.51622,0.4153 -0.21987,0 -0.39087,-0.0733 -0.14658,-0.0733 -0.24429,-0.26872 -0.0977,-0.19544 -0.14658,-0.53745 -0.0489,-0.36644 -0.0489,-0.92831 0,-0.58631 0.0244,-0.95275 0.0489,-0.36644 0.12215,-0.5863 0.0977,-0.21986 0.21986,-0.29315 0.14658,-0.0733 0.34201,-0.0733 0.80617,0 1.53905,-0.36644 0.73288,-0.39087 1.36804,-1.24589 0.63516,-0.87946 1.19704,-2.27193 0.56187,-1.4169 1.02603,-3.468964 0.46416,-2.052063 0.87945,-4.788146 0.4153,-2.760513 0.78174,-6.327194 0.0489,-0.732879 0.34201,-1.07489 0.31758,-0.366439 0.87946,-0.366439 h 11.28634 q 0.58631,0 0.90389,0.366439 0.34201,0.342011 0.34201,1.07489 z"
           style="font-style:normal;font-variant:normal;font-weight:normal;font-stretch:normal;font-family:Calibri;-inkscape-font-specification:Calibri;stroke-width:3.12695265"
           id="path3904"
           inkscape:connector-curvature="0" />
        <path
           d="m 917.39106,102.97609 q 0,1.68562 -0.63516,3.15138 -0.61073,1.46576 -1.92991,2.54065 -1.31919,1.07489 -3.37125,1.71005 -2.05206,0.61074 -4.91029,0.61074 -0.65959,0 -1.36804,-0.0244 -0.70845,0 -1.39248,-0.0489 -0.68402,-0.0244 -1.34361,-0.0733 -0.65959,-0.0489 -1.29475,-0.12215 -1.02603,-0.12214 -1.51462,-0.65959 -0.48859,-0.53744 -0.48859,-1.63676 V 87.97649 q 0,-0.195435 0.0733,-0.317581 0.0977,-0.146576 0.31758,-0.244294 0.2443,-0.122146 0.63517,-0.146576 0.39086,-0.04886 0.97717,-0.04886 0.5863,0 0.97717,0.04886 0.39087,0.02443 0.61073,0.146576 0.2443,0.09772 0.34201,0.244294 0.0977,0.122146 0.0977,0.317581 v 7.744093 q 0.90389,-0.07329 1.95435,-0.09772 1.05046,-0.04886 2.14978,-0.04886 2.66279,0 4.56828,0.537445 1.92992,0.513016 3.15138,1.490189 1.22147,0.977172 1.80777,2.345214 0.5863,1.343619 0.5863,3.029239 z m -4.2507,0.26872 q 0,-1.0016 -0.31758,-1.80777 -0.31758,-0.83059 -1.05046,-1.39247 -0.73288,-0.586301 -1.90549,-0.879453 -1.1726,-0.317581 -2.88266,-0.317581 -1.02603,0 -2.02763,0.04886 -0.97717,0.04886 -1.78334,0.122146 v 8.452548 q 0.85503,0.0977 1.8322,0.171 0.97717,0.0733 2.17421,0.0733 3.02923,0 4.49499,-1.17261 1.46576,-1.19704 1.46576,-3.29796 z"
           style="font-style:normal;font-variant:normal;font-weight:normal;font-stretch:normal;font-family:Calibri;-inkscape-font-specification:Calibri;stroke-width:3.12695265"
           id="path3906"
           inkscape:connector-curvature="0" />
        <path
           d="m 938.498,106.61606 q 0,0.4153 -0.0244,0.73288 -0.0244,0.29315 -0.0977,0.51301 -0.0489,0.19544 -0.14657,0.36644 -0.0733,0.14658 -0.39087,0.46416 -0.29316,0.29315 -1.02603,0.75731 -0.73288,0.43973 -1.6612,0.80617 -0.90388,0.34201 -1.97877,0.56187 -1.07489,0.21987 -2.22307,0.21987 -2.36964,0 -4.20184,-0.78174 -1.8322,-0.78174 -3.0781,-2.27193 -1.22146,-1.51462 -1.88106,-3.68883 -0.63516,-2.19863 -0.63516,-5.056865 0,-3.249099 0.78174,-5.569884 0.80617,-2.345215 2.17421,-3.835403 1.39247,-1.490189 3.2491,-2.198639 1.88106,-0.732879 4.05527,-0.732879 1.05046,0 2.02763,0.195434 1.0016,0.195435 1.8322,0.513016 0.83059,0.317581 1.46576,0.732879 0.65959,0.415299 0.95274,0.708451 0.29315,0.293151 0.39087,0.464157 0.12215,0.171005 0.19543,0.415298 0.0733,0.219864 0.0977,0.513016 0.0244,0.293152 0.0244,0.732879 0,0.952744 -0.21986,1.343613 -0.21987,0.366439 -0.53745,0.366439 -0.36644,0 -0.85502,-0.390869 -0.46416,-0.415298 -1.19704,-0.903884 -0.73288,-0.488587 -1.78334,-0.879456 -1.02603,-0.415298 -2.44293,-0.415298 -2.90709,0 -4.47057,2.247497 -1.53904,2.223068 -1.53904,6.473769 0,2.125349 0.39086,3.737689 0.4153,1.5879 1.19704,2.66279 0.78174,1.07489 1.90549,1.61234 1.14818,0.51301 2.61393,0.51301 1.39248,0 2.44294,-0.43972 1.05046,-0.43973 1.80777,-0.95275 0.78173,-0.53744 1.29475,-0.95274 0.53744,-0.43973 0.8306,-0.43973 0.171,0 0.29315,0.0977 0.12214,0.0977 0.19543,0.34201 0.0977,0.21986 0.12215,0.5863 0.0489,0.34201 0.0489,0.8306 z"
           style="font-style:normal;font-variant:normal;font-weight:normal;font-stretch:normal;font-family:Calibri;-inkscape-font-specification:Calibri;stroke-width:3.12695265"
           id="path3908"
           inkscape:connector-curvature="0" />
        <path
           d="m 957.23529,107.47109 q -0.12215,0.19543 -0.26872,0.31758 -0.12215,0.12214 -0.34202,0.19543 -0.19543,0.0733 -0.53744,0.0977 -0.34201,0.0244 -0.87946,0.0244 -0.61073,0 -0.97717,-0.0733 -0.36644,-0.0733 -0.56187,-0.21986 -0.17101,-0.14658 -0.17101,-0.34201 0.0244,-0.19544 0.17101,-0.43973 l 5.20344,-9.136567 -5.22787,-9.112136 q -0.14658,-0.244293 -0.17101,-0.439728 0,-0.219863 0.17101,-0.366439 0.171,-0.171006 0.53744,-0.244294 0.36644,-0.07329 0.97718,-0.07329 0.53744,0 0.85502,0.02443 0.34201,0.02443 0.56188,0.09772 0.21986,0.07329 0.34201,0.195435 0.12214,0.122146 0.26872,0.317581 l 5.37445,8.623549 q 0.34201,0.561874 0.34201,1.050461 0,0.488586 -0.36644,1.05046 z m -8.94113,-0.46416 q -0.12215,0.19543 -0.2443,0.31758 -0.12214,0.12215 -0.34201,0.19543 -0.21986,0.0489 -0.56187,0.0733 -0.34201,0.0244 -0.90388,0.0244 -0.63517,0 -1.02604,-0.0489 -0.36644,-0.0733 -0.56187,-0.19543 -0.17101,-0.14658 -0.17101,-0.31758 0,-0.19544 0.17101,-0.43973 l 5.2523,-8.672409 -5.37445,-8.818983 q -0.14657,-0.244294 -0.14657,-0.415299 0,-0.171005 0.171,-0.293152 0.19544,-0.122146 0.56188,-0.195434 0.39087,-0.07329 1.02603,-0.07329 0.53744,0 0.87945,0.02443 0.36644,0.02443 0.56188,0.09772 0.21986,0.07329 0.34201,0.195435 0.14657,0.09772 0.26872,0.293152 l 5.35002,8.208251 q 0.34201,0.513015 0.34201,1.001602 0,0.464157 -0.36644,1.001602 z"
           style="font-style:normal;font-variant:normal;font-weight:normal;font-stretch:normal;font-family:Calibri;-inkscape-font-specification:Calibri;stroke-width:3.12695265"
           id="path3910"
           inkscape:connector-curvature="0" />
      </g>
    </g>
  </g>
</svg>
